<?xml version="1.0" standalone="no"?>
<!DOCTYPE svg PUBLIC "-//W3C//DTD SVG 1.1//EN" "http://www.w3.org/Graphics/SVG/1.1/DTD/svg11.dtd" >
<svg xmlns="http://www.w3.org/2000/svg">
<metadata></metadata>
<defs>
<font id="engel_light_ltdlight" horiz-adv-x="250" >
<font-face units-per-em="1000" ascent="800" descent="-200" />
<missing-glyph horiz-adv-x="500" />
<glyph unicode="&#xd;" />
<glyph unicode=" " />
<glyph unicode="0" horiz-adv-x="498" d="M249 -4q-36 0 -69.5 9.5t-60 29.5t-42.5 52.5t-16 78.5v383q0 46 16 78t42.5 52.5t60 30t69.5 9.5t69.5 -9.5t60 -30t42.5 -52.5t16 -78v-383q0 -46 -16 -78.5t-42.5 -52.5t-60 -29.5t-69.5 -9.5zM385 543q0 63 -37.5 96.5t-98.5 33.5t-98.5 -33.5t-37.5 -96.5v-373 q0 -63 37.5 -97t98.5 -34t98.5 34t37.5 97v373z" />
<glyph unicode="1" horiz-adv-x="410" d="M198 28v643l-137 -51v34l137 58h51v-684h90v-34h-257v34h116z" />
<glyph unicode="2" horiz-adv-x="514" d="M60 67q0 61 19 106t50.5 79.5t72 62.5t82.5 55l42 27q27 17 43.5 37t26 42t12.5 44.5t3 44.5q0 54 -27.5 82t-97.5 28q-17 0 -39.5 -4t-46 -10.5t-46 -14t-40.5 -14.5l-11 42q22 9 46.5 17t48.5 14t46 9.5t39 3.5q41 0 74 -6.5t56.5 -23.5t36 -46.5t12.5 -75.5 q0 -27 -3 -53t-14 -51.5t-33 -51t-59 -50.5q-22 -15 -34.5 -23.5t-20 -13.5l-10.5 -7l-6 -4q-32 -22 -63 -45.5t-55.5 -53.5t-39.5 -70.5t-15 -95.5h365v-47h-414v67z" />
<glyph unicode="3" horiz-adv-x="477" d="M238 718q43 0 73.5 -7.5t50 -24.5t28 -45t8.5 -70q0 -22 -4 -41.5t-15 -37.5t-29.5 -34.5t-48.5 -31.5q64 -26 92 -69t28 -103v-79q0 -48 -17.5 -82t-47 -55.5t-67 -31.5t-76.5 -10q-21 0 -44.5 4t-46.5 10t-43.5 13.5t-35.5 14.5l8 39q16 -8 37.5 -15.5t43.5 -12.5 t44 -8t40 -3q28 0 55 6.5t48.5 23t34.5 44.5t13 70v64q0 44 -13.5 74t-36 48t-51.5 26t-60 8h-25v43h23q31 0 58 8t47.5 23.5t32.5 39t12 54.5q0 25 -3.5 44.5t-15.5 33t-34.5 20.5t-59.5 7q-20 0 -43 -4t-45.5 -10.5t-44 -14t-39.5 -14.5l-11 43q20 8 44.5 15.5t49 13.5 t47 10t39.5 4z" />
<glyph unicode="4" horiz-adv-x="492" d="M400 0h-48v116h-314v46l241 550h52l-238 -551h259v219h48v-219h60v-45h-60v-116z" />
<glyph unicode="5" horiz-adv-x="505" d="M228 -4q-21 0 -45 4t-47 10t-43.5 13.5t-34.5 14.5l8 39q16 -8 37 -15t43 -12t44 -8.5t41 -3.5q49 0 82 17t53 46t28 67t8 81q0 36 -4 71.5t-17.5 64t-38 46t-64.5 17.5q-32 0 -65 -21.5t-59 -49.5h-66v335h346v-46h-296v-239q24 20 44 32.5t37.5 19t32 9t28.5 2.5 q51 0 84 -18.5t52 -51.5t26 -78.5t7 -100.5q0 -51 -11 -95.5t-37 -77.5t-68.5 -52.5t-104.5 -19.5z" />
<glyph unicode="6" horiz-adv-x="498" d="M68 536q0 94 46.5 138t135.5 44q14 0 34 -3t41.5 -8t44 -11t42.5 -13l-9 -45q-37 13 -78.5 25t-73.5 12q-66 0 -98 -35t-32 -115v-105q51 17 88.5 26t75.5 9q77 0 119.5 -49t42.5 -149v-77q0 -92 -52.5 -139t-137.5 -47q-84 0 -137 47t-53 139zM393 267q0 34 -5.5 60.5 t-20 44.5t-39 27t-62.5 9q-28 0 -66 -9.5t-79 -29.5v-198q0 -63 37.5 -97.5t98.5 -34.5t98.5 34.5t37.5 97.5v96z" />
<glyph unicode="7" horiz-adv-x="447" d="M75 591h-24v121h365v-61l-247 -651h-52l253 665h-278z" />
<glyph unicode="8" horiz-adv-x="491" d="M245 -6q-45 0 -82 13.5t-63 39t-40.5 61.5t-14.5 82v55q0 15 5 34.5t17.5 40t35 40.5t58.5 36q-32 21 -49.5 43t-26 42.5t-10.5 39t-2 32.5q0 47 15 79t39 51.5t54.5 28t62.5 8.5t63 -8.5t56 -28t40 -51.5t15 -79q0 -14 -1.5 -32.5t-9.5 -39t-25 -42.5t-48 -43 q35 -17 57 -37t34 -40.5t16.5 -39.5t4.5 -34v-55q0 -92 -52 -144t-149 -52zM246 34q42 0 71 12.5t47 34t26 49t8 57.5v49q0 31 -11.5 57t-31.5 44.5t-48 28.5t-61 10t-60.5 -10t-48 -28.5t-32 -44.5t-11.5 -57v-49q0 -31 7.5 -59t25 -49t46.5 -33t73 -12zM246 418 q54 0 89.5 36t35.5 104q0 34 -11 57.5t-29 38t-40 21t-44 6.5t-44.5 -6.5t-41 -21t-30 -38t-11.5 -57.5q0 -68 36 -104t90 -36z" />
<glyph unicode="9" horiz-adv-x="499" d="M429 174q0 -94 -46.5 -138t-135.5 -44q-14 0 -34 3t-41.5 8t-44 11t-42.5 13l9 45q37 -13 78.5 -25t73.5 -12q66 0 98 35t32 115v107q-51 -17 -88.5 -26t-75.5 -9q-45 0 -75.5 15.5t-50 43t-28 66t-8.5 84.5v64q0 92 52.5 139t137.5 47q42 0 77 -12t60 -35.5t39 -58 t14 -80.5zM104 457q0 -30 4 -58t17.5 -49.5t38.5 -34.5t67 -13q28 0 66 10.5t79 30.5v196q0 63 -37.5 97.5t-98.5 34.5t-98.5 -34.5t-37.5 -97.5v-82z" />
<glyph unicode="A" horiz-adv-x="560" d="M448 174h-334l-64 -174h-49l261 712h38l259 -712h-47zM130 212h305l-154 424z" />
<glyph unicode="B" horiz-adv-x="574" d="M67 0v712h233q55 0 92 -12t59.5 -33.5t32 -52.5t9.5 -68q0 -48 -28.5 -87.5t-79.5 -62.5q30 -8 56 -23t45.5 -38t30.5 -55t11 -72q0 -97 -58 -152.5t-167 -55.5h-236zM120 365v-325h146q110 0 161 44.5t51 120.5q0 35 -9.5 64.5t-33.5 50.5t-65.5 33t-106.5 12h-143z M120 672v-263h123q43 0 80 8.5t64.5 25.5t43.5 43t16 62q0 31 -8.5 54.5t-28.5 39t-54.5 23t-85.5 7.5h-150z" />
<glyph unicode="C" horiz-adv-x="526" d="M297 675q-48 0 -89 -17t-62 -47q-12 -18 -19.5 -37.5t-11.5 -48t-5.5 -69t-1.5 -100.5q0 -58 1.5 -98.5t6 -69.5t12 -49t19.5 -37q23 -32 63.5 -48.5t86.5 -16.5q12 0 35 3t51 9t57 14.5t55 20.5l8 -41q-27 -11 -56 -20t-57 -15t-52 -9t-41 -3q-75 0 -127.5 26t-75.5 71 q-8 14 -14 31.5t-11 46t-7.5 72.5t-2.5 113t2.5 112.5t6.5 72t10 45t14 31.5q23 44 76.5 72t128.5 28q16 0 40.5 -2.5t51.5 -8t54.5 -12.5t49.5 -16l-9 -41q-45 17 -94.5 27.5t-92.5 10.5z" />
<glyph unicode="D" horiz-adv-x="589" d="M293 713q77 0 128 -24t74 -68q7 -15 13.5 -32.5t11 -46t7.5 -73t3 -113.5t-2.5 -112.5t-7 -71.5t-11 -45t-13.5 -31q-22 -42 -70 -69t-129 -27h-225v712zM121 672v-631h172q24 0 49 4.5t47.5 15t39.5 26t26 38.5q7 17 11.5 33t7.5 40.5t4.5 61.5t1.5 96q0 58 -1 95t-4 61 t-8 40.5t-12 34.5q-9 24 -27 40t-40 25.5t-46.5 14t-48.5 4.5z" />
<glyph unicode="E" horiz-adv-x="508" d="M72 712h392v-40h-344v-280h290v-40h-290v-312h352v-40h-400v712z" />
<glyph unicode="F" horiz-adv-x="496" d="M72 0v712h393v-40h-344v-279h290v-41h-290v-353z" />
<glyph unicode="G" horiz-adv-x="593" d="M297 717q16 0 40 -2.5t51.5 -8t55 -12.5t49.5 -16l-9 -41q-45 17 -94.5 27.5t-92.5 10.5q-48 0 -89 -17t-62 -47q-13 -18 -20.5 -37.5t-11.5 -48t-5 -69t-1 -100.5q0 -59 1.5 -100t5.5 -69.5t12 -48t21 -37.5q22 -29 61.5 -46.5t87.5 -17.5q40 0 74.5 11t59 34t38.5 57.5 t14 82.5v104h-180v43h229v-134q0 -72 -20 -118.5t-53 -73t-75 -37t-87 -10.5q-34 0 -65.5 6.5t-58.5 19t-47 30.5t-32 41q-7 14 -13.5 33t-11 49t-7.5 74t-3 107q0 69 2.5 112.5t6.5 72t10 45t14 31.5q23 45 75.5 72.5t129.5 27.5z" />
<glyph unicode="H" horiz-adv-x="598" d="M475 351h-352v-351h-51v712h51v-324h352v324h51v-712h-51v351z" />
<glyph unicode="I" horiz-adv-x="204" d="M77 712h50v-712h-50v712z" />
<glyph unicode="J" horiz-adv-x="441" d="M157 -6q-29 0 -69 8.5t-72 20.5l13 41q17 -6 31.5 -10.5t29 -8t31 -5t37.5 -1.5q33 0 62.5 11.5t51.5 38t35 68.5t13 103v452h49v-470q0 -71 -18.5 -119t-48.5 -76.5t-68 -40.5t-77 -12z" />
<glyph unicode="K" horiz-adv-x="555" d="M244 368l-121 -144v-224h-51v712h51v-416l340 416h58l-247 -302l268 -410h-55z" />
<glyph unicode="L" horiz-adv-x="483" d="M72 712h48v-671h352v-41h-400v712z" />
<glyph unicode="M" horiz-adv-x="767" d="M649 591l-5 -1l-239 -590h-43l-238 587h-5v-587h-47v712h54l256 -639l257 639h56v-712h-47z" />
<glyph unicode="N" horiz-adv-x="626" d="M126 632l-5 -1v-631h-49v712h61l367 -616l5 1v615h49v-712h-52z" />
<glyph unicode="O" horiz-adv-x="596" d="M60 356q0 69 2.5 113t7 72t11 45t13.5 32q22 44 74.5 71.5t129.5 27.5t129.5 -27.5t74.5 -71.5q7 -15 13.5 -32t11 -45t7 -72t2.5 -113t-2.5 -112.5t-7 -71.5t-11 -45t-13.5 -31q-23 -45 -75 -72.5t-129 -27.5t-129 27.5t-75 72.5q-7 14 -13.5 31t-11 45t-7 71.5 t-2.5 112.5zM109 356q0 -61 1.5 -100t4.5 -64t7.5 -40t10.5 -27q18 -41 61 -64.5t104 -23.5q60 0 102.5 23.5t60.5 64.5q6 12 10.5 27t7.5 40t5 64t2 100q0 60 -2 99t-5 64.5t-7.5 40.5t-10.5 27q-18 41 -60.5 64.5t-102.5 23.5q-61 0 -104.5 -23.5t-60.5 -64.5 q-5 -12 -9.5 -27t-7.5 -40.5t-5 -64.5t-2 -99z" />
<glyph unicode="P" horiz-adv-x="548" d="M121 307v-307h-49v712h229q102 0 159 -48.5t57 -152.5q0 -45 -16 -82.5t-47.5 -64.5t-78 -42t-108.5 -15h-146zM121 345h133q106 0 161 44.5t55 124.5q0 78 -45 118t-154 40h-150v-327z" />
<glyph unicode="Q" horiz-adv-x="593" d="M59 356q0 69 2.5 113t7 72t11 45t13.5 32q22 44 74.5 71.5t129.5 27.5t129.5 -27.5t74.5 -71.5q7 -15 13.5 -32t11 -45t7 -72t2.5 -113t-2.5 -112.5t-7 -71.5t-11 -45t-13.5 -31q-30 -58 -108 -86l86 -93l-21 -20l-111 103q-12 -2 -24 -3t-26 -1q-77 0 -129 27.5 t-75 72.5q-7 14 -13.5 31t-11 45t-7 71.5t-2.5 112.5zM108 356q0 -61 1.5 -100t4.5 -64t7.5 -40t10.5 -27q17 -41 60.5 -64.5t104.5 -23.5q60 0 102.5 23.5t60.5 64.5q6 12 10.5 27t7.5 40t5 64t2 100q0 60 -2 99t-5 64.5t-7.5 40.5t-10.5 27q-17 41 -60 64.5t-103 23.5 q-61 0 -104.5 -23.5t-60.5 -64.5q-5 -12 -9.5 -27t-7.5 -40.5t-5 -64.5t-2 -99z" />
<glyph unicode="R" horiz-adv-x="548" d="M121 339v-339h-49v712h229q45 0 84.5 -9.5t69 -30.5t46 -55t16.5 -82q0 -31 -11 -61t-32.5 -55t-52.5 -44t-71 -28q42 -87 82.5 -173.5t81.5 -173.5h-55l-157 339h-181zM121 377h138q43 0 81.5 11.5t67 32.5t45.5 51t17 66q0 63 -46.5 98.5t-152.5 35.5h-150v-295z" />
<glyph unicode="S" horiz-adv-x="548" d="M271 719q32 0 86 -11.5t110 -31.5l-13 -43q-56 20 -101.5 31t-80.5 11q-28 0 -56 -6.5t-50 -20t-36 -35t-14 -51.5q0 -23 9 -41.5t24 -33t36 -26t45 -21.5t49.5 -18t49.5 -16q82 -26 127.5 -71t45.5 -124q0 -44 -16 -83t-47 -69t-76 -47.5t-103 -17.5q-66 0 -120.5 12 t-107.5 34l19 43q47 -22 99 -34t108 -12q47 0 83 14t60 37.5t36 54t12 63.5q0 55 -28 90.5t-94 58.5l-50 18t-48 17q-42 15 -73.5 30.5t-52 35t-30.5 44.5t-10 60q0 34 12.5 63t38 50.5t65 33.5t92.5 12z" />
<glyph unicode="T" horiz-adv-x="472" d="M257 0h-42v677h-199v35h440v-35h-199v-677z" />
<glyph unicode="U" horiz-adv-x="610" d="M539 356q0 -66 -2 -109.5t-6 -72t-10 -46.5t-13 -32q-23 -45 -74.5 -72.5t-129.5 -27.5q-77 0 -128.5 26.5t-74.5 71.5q-7 14 -13 29.5t-10 43t-6 72.5t-2 117v356h47v-351q0 -56 0.5 -93t2.5 -63t6.5 -45t13.5 -38q10 -23 28 -39t40 -26t47 -15t49 -5q23 0 48 5.5 t47.5 16.5t40.5 27.5t27 38.5q8 19 12.5 36.5t7 42t3.5 61.5t1 96v351h49z" />
<glyph unicode="V" horiz-adv-x="503" d="M237 0l-220 712h56l180 -612l179 612h54l-220 -712h-29z" />
<glyph unicode="W" horiz-adv-x="818" d="M19 712h53l151 -575l5 1l171 576l24 -2l170 -573h6l150 573h50l-193 -712h-22l-174 603l-175 -603h-21z" />
<glyph unicode="X" horiz-adv-x="508" d="M252 323l-181 -323h-50l208 365l-194 347h51l166 -303l168 303h50l-193 -347l207 -365h-49z" />
<glyph unicode="Y" horiz-adv-x="478" d="M261 0h-45v296l-202 416h55l170 -377l171 377h54l-203 -416v-296z" />
<glyph unicode="Z" horiz-adv-x="497" d="M41 52l365 619h-321v41h383v-41l-374 -630h382v-41h-435v52z" />
<glyph unicode="a" horiz-adv-x="476" d="M360 37q-19 -6 -43 -13t-47 -13.5t-42.5 -11t-29.5 -4.5q-38 0 -67 11.5t-49.5 31.5t-31 46t-10.5 56q0 27 6.5 54t23 48.5t45 35t71.5 13.5h172v77q0 54 -26 77.5t-91 23.5q-29 0 -67 -10.5t-80 -30.5l-18 38q18 8 39.5 16.5t44 15t45 10.5t41.5 4q40 0 70 -5.5 t50 -21.5t30 -43.5t10 -72.5v-318l14 -46l-38 -9zM202 251q-36 0 -59 -7.5t-36.5 -21.5t-18.5 -34t-5 -45q0 -22 5.5 -42t20.5 -35t40.5 -24t65.5 -9q7 0 23.5 4t37 10.5t42.5 14t40 13.5v176h-156z" />
<glyph unicode="b" horiz-adv-x="490" d="M100 -4l-44 9l14 46v661h48v-245q21 7 46.5 15t51.5 15t50.5 11.5t43.5 4.5q33 0 57.5 -12t40 -32.5t23 -47t7.5 -56.5v-143q0 -43 -6.5 -83.5t-24.5 -72.5t-50.5 -51.5t-84.5 -19.5q-7 0 -23.5 3.5t-39 9t-47.5 12.5t-48 14zM118 79q18 -7 39 -14.5t41.5 -13.5t38 -10 t28.5 -4q26 0 48.5 5t39.5 24.5t26.5 57.5t9.5 104v90q0 27 -2.5 54t-12.5 48t-29.5 34.5t-52.5 13.5q-35 0 -79 -13.5t-95 -32.5v-343z" />
<glyph unicode="c" horiz-adv-x="456" d="M241 -4q-56 0 -93.5 16.5t-59.5 48.5t-31 80.5t-9 112.5q0 65 9.5 113.5t31 80.5t57.5 48t89 16q42 0 87.5 -13.5t83.5 -32.5l-18 -40q-33 17 -67 30t-80 13q-45 0 -72.5 -13.5t-43 -40.5t-20.5 -67.5t-5 -94.5q0 -53 5 -93t20.5 -67t43 -40.5t72.5 -13.5t85.5 13.5 t77.5 33.5l17 -39q-51 -26 -99.5 -38.5t-80.5 -12.5z" />
<glyph unicode="d" horiz-adv-x="495" d="M368 420q-16 7 -37 16t-43 16.5t-43.5 12.5t-38.5 5q-32 0 -53 -11.5t-33 -33.5t-16.5 -54.5t-4.5 -73.5v-39q0 -59 8 -101t24 -68.5t39.5 -38.5t54.5 -12q11 0 28.5 4.5t37 11t40 14.5t37.5 15v337zM373 41q-17 -7 -39 -15.5t-43.5 -15.5t-40 -11.5t-27.5 -4.5 q-50 0 -83.5 18.5t-53.5 50.5t-28.5 76t-8.5 94v85q0 101 39.5 148t108.5 47q19 0 41 -5t44.5 -12t44.5 -15t41 -14v245h48v-661l22 -46l-41 -10z" />
<glyph unicode="e" horiz-adv-x="480" d="M239 -4q-54 0 -90.5 16.5t-58 48.5t-31 80.5t-9.5 112.5t9 112.5t31 81t59.5 48.5t93.5 16t93.5 -16t59.5 -49t31 -82t9 -115v-19h-334q1 -41 5 -76t18 -60.5t41.5 -40.5t76.5 -15q45 0 85.5 13.5t77.5 33.5l17 -39q-24 -12 -50 -21.5t-51 -16t-46.5 -10t-36.5 -3.5z M243 472q-36 0 -62.5 -9t-44 -32t-26 -61.5t-8.5 -97.5h282q0 55 -7.5 93t-24.5 62t-43.5 34.5t-65.5 10.5z" />
<glyph unicode="f" horiz-adv-x="338" d="M92 604q0 55 30.5 84t85.5 29q28 0 59.5 -9t59.5 -19l-11 -37q-26 10 -50 17.5t-44 7.5q-46 0 -64 -21t-18 -67v-91h188v-41h-188v-457h-48v457h-52v41h52v106z" />
<glyph unicode="g" horiz-adv-x="485" d="M370 420q-17 7 -38 16t-43 16.5t-43 12.5t-38 5q-32 0 -53 -11.5t-33 -33.5t-16.5 -54.5t-4.5 -73.5v-52q0 -56 5.5 -95.5t19.5 -65t38 -37t61 -11.5q11 0 28.5 4.5t37.5 11.5t41 15t38 14v339zM370 36q-21 -9 -44 -17t-43 -13.5t-36.5 -8.5t-25.5 -3q-55 0 -88.5 17 t-51.5 47t-24 72t-6 92v96q0 101 39.5 147.5t108.5 46.5q18 0 40.5 -5t46 -12t46 -14.5l40.5 -13.5l18 46l46 -11l-18 -60v-438q0 -58 -13 -99t-37.5 -67t-59.5 -38t-79 -12q-30 0 -79 12t-102 39l17 41q32 -17 75 -34.5t88 -17.5q37 0 62.5 10.5t42 30.5t24.5 48.5t10 64.5 z" />
<glyph unicode="h" horiz-adv-x="500" d="M385 301q0 33 -2 63.5t-11.5 54t-28.5 37t-52 13.5q-29 0 -77.5 -13.5t-95.5 -34.5v-421h-48v712h48v-246q22 7 48 15.5t51.5 15.5t49.5 11.5t43 4.5q24 0 46.5 -8.5t39.5 -28t27 -51.5t10 -80v-345h-48v301z" />
<glyph unicode="i" horiz-adv-x="188" d="M70 508h48v-508h-48v508zM70 712h48v-50h-48v50z" />
<glyph unicode="j" horiz-adv-x="201" d="M131 -50q0 -39 -12 -68.5t-31.5 -50t-45 -32.5t-52.5 -16l-11 40q22 7 41 16t33 24t22 37t8 55v551h48v-556zM83 712h48v-50h-48v50z" />
<glyph unicode="k" horiz-adv-x="458" d="M209 281l-91 -90v-191h-48v713h48v-464l249 257h56l-182 -190l202 -316h-54z" />
<glyph unicode="l" horiz-adv-x="188" d="M70 713h48v-713h-48v713z" />
<glyph unicode="m" horiz-adv-x="771" d="M403 417q9 -36 9 -81v-336h-48v302q0 33 -1.5 63t-10.5 52.5t-27.5 36t-51.5 13.5q-11 0 -29.5 -4.5t-40 -11t-44 -15t-40.5 -15.5v-421h-48v442l-18 57l46 14l17 -47q13 5 35.5 12.5t48 15t49.5 13t40 5.5q35 0 59 -14t38 -40q15 6 41.5 15t55.5 17.5t55.5 15t42.5 6.5 q66 0 94.5 -49t28.5 -127v-336h-48v302q0 33 -1.5 63t-10.5 52.5t-27.5 36t-51.5 13.5q-11 0 -31 -4.5t-43 -12t-46.5 -16t-41.5 -17.5z" />
<glyph unicode="n" horiz-adv-x="501" d="M116 466q15 4 39 12t51 16t54.5 13.5t50.5 5.5q24 0 46.5 -8.5t39.5 -28t27 -51.5t10 -80v-345h-48v301q0 33 -2 63.5t-11.5 54t-28.5 37t-52 13.5q-15 0 -35 -3.5t-43 -10t-47.5 -15.5t-47.5 -19v-421h-48v442l-18 57l46 14z" />
<glyph unicode="o" horiz-adv-x="486" d="M50 254q0 64 9 112.5t31 81t59.5 48.5t93.5 16t93.5 -16t59.5 -48.5t31 -81t9 -112.5t-9 -112.5t-31 -80.5t-59.5 -48.5t-93.5 -16.5t-93.5 16.5t-59.5 48.5t-31 80.5t-9 112.5zM384 255q0 53 -5 93.5t-20.5 68t-43 41.5t-72.5 14t-72.5 -14t-43 -41.5t-20.5 -68 t-5 -93.5t5 -94t20.5 -69t43 -42t72.5 -14t72.5 14t43 42t20.5 69t5 94z" />
<glyph unicode="p" horiz-adv-x="490" d="M120 -206h-49v648l-18 56l47 15l17 -47q15 5 38.5 13t50.5 15.5t54.5 13t51.5 5.5q32 0 56 -12t39.5 -32.5t23.5 -47t8 -56.5v-143q0 -41 -6 -82t-24 -73t-50.5 -52t-85.5 -20q-10 0 -28 4t-39.5 9.5t-44 12.5t-41.5 13v-240zM119 79q15 -6 34.5 -13.5t40 -13.5 t39.5 -10.5t33 -4.5q33 0 56.5 8t38.5 29.5t22 58.5t7 95v90q0 21 -2 47.5t-11 49.5t-28.5 38.5t-55.5 15.5q-21 0 -43.5 -4.5t-45.5 -12t-44.5 -16t-39.5 -15.5z" />
<glyph unicode="q" horiz-adv-x="493" d="M373 420q-16 7 -37 16t-43.5 16.5t-44 12.5t-38.5 5q-32 0 -52.5 -11.5t-32.5 -33.5t-16.5 -54.5t-4.5 -73.5v-52q0 -59 6.5 -99.5t21 -65.5t38 -35.5t57.5 -10.5q11 0 28.5 4.5t37.5 11.5t41 15t39 16v339zM373 35q-19 -7 -41 -14.5t-42 -13.5t-37 -9.5t-26 -3.5 q-57 0 -91 17t-52 47t-24 72t-6 92v96q0 101 39 147.5t108 46.5q18 0 41 -5.5t46 -13t46 -16t41 -14.5l12 44h34v-713h-48v241z" />
<glyph unicode="r" horiz-adv-x="315" d="M303 461q-17 0 -37.5 -2t-35.5 -8q-16 -6 -27 -11.5t-22 -12.5t-24 -16t-31 -23v-388h-48v429l-25 66l43 15l30 -65q21 13 35.5 22t26.5 15.5t24 12t27 10.5q14 5 33 6t33 1z" />
<glyph unicode="s" horiz-adv-x="437" d="M212 -4q-15 0 -36.5 3.5t-45.5 10t-50 16t-50 21.5l17 40q39 -20 83.5 -34.5t81.5 -14.5q77 0 110.5 30t33.5 79q0 16 -9 29t-23 23t-30.5 17.5t-30.5 12.5l-88 32q-60 22 -94 51t-34 76q0 66 38.5 96.5t113.5 30.5q16 0 37.5 -2.5t46 -7.5t50.5 -13t50 -19l-17 -38 q-52 23 -90.5 30.5t-67.5 7.5q-54 0 -82 -18.5t-28 -60.5q0 -28 22 -49t58 -36q18 -8 38 -14.5t38 -13.5q38 -14 66 -26t46.5 -26.5t27.5 -33.5t9 -47q0 -31 -9.5 -58.5t-32 -48.5t-59 -33t-90.5 -12z" />
<glyph unicode="t" horiz-adv-x="356" d="M222 -5q-55 0 -86 28.5t-31 83.5v355h-60v41h60v83l23 74h26v-157h128v-41h-128v-339q0 -45 18.5 -65t63.5 -20q20 0 44 7.5t50 17.5l11 -40q-27 -10 -59.5 -19t-59.5 -9z" />
<glyph unicode="u" horiz-adv-x="489" d="M373 36q-20 -8 -42 -15.5t-42.5 -13.5t-37.5 -9.5t-26 -3.5q-35 0 -64 7.5t-50 25.5t-32.5 47.5t-11.5 72.5v360h48v-322q0 -50 8 -79.5t23 -45.5t35 -21t44 -5q10 0 27.5 4.5t38 11.5t41.5 15t39 16v426h48v-456l14 -46l-39 -9z" />
<glyph unicode="v" horiz-adv-x="391" d="M185 0l-177 508h51l137 -414l137 414h51l-177 -508h-22z" />
<glyph unicode="w" horiz-adv-x="585" d="M420 -4h-12l-115 386l-117 -386h-12l-156 511h51l111 -395l113 395h19l112 -395l113 395h50z" />
<glyph unicode="x" horiz-adv-x="412" d="M206 210l-129 -210h-57l161 259l-155 248h57l122 -206l125 206h56l-155 -248l161 -259h-57z" />
<glyph unicode="y" horiz-adv-x="405" d="M248 80q-20 -58 -46 -104t-54 -81.5t-57.5 -61.5t-56.5 -44l-26 30q24 17 50.5 42.5t51 56t44 64t30.5 66.5l-163 459h50l139 -410l137 410h51z" />
<glyph unicode="z" horiz-adv-x="414" d="M37 55l288 410h-273v43h322v-60l-288 -405h288v-43h-337v55z" />
<glyph unicode="&#xe000;" horiz-adv-x="505" d="M0 505h505v-505h-505v505z" />
</font>
</defs>
</svg>
