<?xml version="1.0" standalone="no"?>
<!DOCTYPE svg PUBLIC "-//W3C//DTD SVG 1.1//EN" "http://www.w3.org/Graphics/SVG/1.1/DTD/svg11.dtd" >
<svg xmlns="http://www.w3.org/2000/svg">
<metadata></metadata>
<defs>
<font id="narratorregular" horiz-adv-x="715" >
<font-face units-per-em="1000" ascent="750" descent="-250" />
<missing-glyph horiz-adv-x="277" />
<glyph unicode=" "  horiz-adv-x="277" />
<glyph unicode="&#x09;" horiz-adv-x="277" />
<glyph unicode="&#xa0;" horiz-adv-x="277" />
<glyph unicode="!" horiz-adv-x="251" d="M90 733h76v-522h-76v522zM74 50q0 -20 17 -37t37 -17q22 0 38.5 17t16.5 37q0 23 -16.5 39t-38.5 16q-21 0 -37.5 -16t-16.5 -39z" />
<glyph unicode="&#x22;" horiz-adv-x="374" d="M163 734l-16 -193h-70l-4 193h90zM301 734l-17 -193h-70l-3 193h90z" />
<glyph unicode="#" horiz-adv-x="776" d="M326 733h76l-53 -224h130l53 224h76l-53 -224h150l-17 -65h-147l-38 -158h155l-17 -65h-151l-52 -220h-76l52 220h-130l-52 -220h-76l52 220h-137l17 65h133l38 158h-131l17 65h128zM335 444l-38 -158h130l38 158h-130z" />
<glyph unicode="$" horiz-adv-x="600" d="M264 813h74v-78q55 -7 104 -32.5t70 -47.5l21 -22l-53 -45q-6 7 -17 18t-48 32.5t-77 28.5v-249l40 -14q94 -34 137.5 -83.5t43.5 -128.5q0 -81 -59.5 -133t-161.5 -60v-79h-74v79q-58 6 -113.5 32t-82.5 49l-27 24l53 50q8 -8 23 -19.5t59.5 -34.5t87.5 -30v291l-47 17 q-81 31 -117 70.5t-36 104.5q0 76 53 125.5t147 57.5v77zM351 333l-13 5v-269q145 13 145 119q0 56 -31 88.5t-101 56.5zM143 555q0 -43 20.5 -65t76.5 -40l24 -9v227q-121 -16 -121 -113z" />
<glyph unicode="%" horiz-adv-x="849" d="M619 341q66 0 114 -48.5t48 -123.5q0 -77 -47 -126.5t-115 -49.5q-66 0 -110.5 49t-44.5 127q0 76 44.5 124t110.5 48zM223 731q66 0 114 -49t48 -123q0 -78 -47 -127t-115 -49q-66 0 -110.5 48.5t-44.5 127.5q0 76 45 124t110 48zM555 731h76l-340 -732h-76zM223 445 q40 0 68.5 31t28.5 82q0 54 -27 82.5t-71 28.5q-39 0 -64 -30.5t-25 -80.5q0 -52 26 -82.5t64 -30.5zM619 56q40 0 68 31t28 82q0 53 -26.5 81.5t-70.5 28.5q-39 0 -64 -30t-25 -80q0 -53 26 -83t64 -30z" />
<glyph unicode="&#x26;" horiz-adv-x="702" d="M68 208q0 65 32.5 111.5t103.5 93.5q-66 85 -66 159q0 71 46.5 116.5t118.5 46.5q70 0 117 -46t47 -114q0 -51 -27.5 -86.5t-82.5 -67.5q-24 -13 -45 -27l185 -223q32 51 44 141l73 -22q-14 -107 -67 -180l87 -110h-93l-45 56q-71 -59 -172 -59q-120 0 -188 56.5 t-68 154.5zM325 73q75 0 124 42l-198 244q-55 -37 -80 -71t-25 -81q0 -62 47 -98t132 -36zM317 481q74 41 74 88q0 43 -24.5 67.5t-62.5 24.5q-46 0 -67.5 -21.5t-21.5 -69.5q0 -54 49 -119q21 13 53 30z" />
<glyph unicode="'" horiz-adv-x="232" d="M164 734l-16 -193h-70l-4 193h90z" />
<glyph unicode="(" horiz-adv-x="363" d="M236 734l59 -41q-85 -91 -118.5 -189.5t-33.5 -245.5q0 -148 33.5 -259.5t118.5 -218.5l-59 -37q-86 99 -127 219t-41 296q0 300 168 476z" />
<glyph unicode=")" horiz-adv-x="350" d="M65 693l59 41q168 -176 168 -476q0 -176 -41 -296t-127 -219l-59 37q85 107 118.5 218.5t33.5 259.5q0 147 -33.5 245.5t-118.5 189.5z" />
<glyph unicode="*" horiz-adv-x="492" d="M71 587l19 63l117 -32l7 114h66l6 -113l116 31l19 -63l-106 -43l72 -102l-55 -35l-85 102l-83 -102l-54 35l69 102z" />
<glyph unicode="+" horiz-adv-x="637" d="M356 556v-205h205v-75h-205v-205h-75v205h-205v75h205v205h75z" />
<glyph unicode="," horiz-adv-x="255" d="M187 94l-90 -193h-70l70 193h90z" />
<glyph unicode="-" horiz-adv-x="447" d="M76 351h295v-75h-295v75z" />
<glyph unicode="." horiz-adv-x="251" d="M74 50q0 23 16.5 39t37.5 16q22 0 38.5 -16t16.5 -39q0 -20 -16.5 -37t-38.5 -17q-20 0 -37 17t-17 37z" />
<glyph unicode="/" horiz-adv-x="552" d="M408 731h76l-340 -731h-76z" />
<glyph unicode="0" horiz-adv-x="621" d="M306 736q111 0 179 -92t68 -276q0 -372 -250 -372q-110 0 -172.5 90t-62.5 281q0 192 63.5 280.5t174.5 88.5zM304 66q174 0 174 303q0 154 -46.5 226t-126.5 72q-162 0 -162 -298q0 -303 161 -303z" />
<glyph unicode="1" horiz-adv-x="386" d="M209 731h76v-731h-76v643l-119 -93l-39 54z" />
<glyph unicode="2" horiz-adv-x="606" d="M526 528q0 -71 -22 -119t-76 -98l-260 -241h367v-70h-467v74q217 201 289 269q50 46 70.5 88t20.5 97t-42 95t-105 40q-50 0 -91.5 -25t-84.5 -89l-46 52q90 134 224 134q92 0 157.5 -62t65.5 -145z" />
<glyph unicode="3" horiz-adv-x="625" d="M429 663h-335v70h422v-80l-224 -204q115 14 190 -51.5t75 -175.5q0 -99 -77 -163t-188 -64q-64 0 -124.5 18.5t-96.5 52.5l36 60q73 -56 184 -56q87 0 138.5 40.5t51.5 111.5q0 90 -67.5 132t-184.5 18l-41 77z" />
<glyph unicode="4" horiz-adv-x="625" d="M382 731h76v-423h96v-73h-96v-235h-76v235h-314v73zM382 620l-223 -312h223v312z" />
<glyph unicode="5" horiz-adv-x="625" d="M91 335v396h412l-1 -70h-335v-248q65 46 137 46q106 0 173.5 -64.5t67.5 -166.5q0 -97 -74.5 -164t-178.5 -67q-64 0 -126 18.5t-98 52.5l39 60q73 -56 184 -56q77 0 127.5 45t50.5 112q0 77 -44 118.5t-122 41.5q-68 0 -139 -54h-73z" />
<glyph unicode="6" horiz-adv-x="621" d="M68 228q0 88 78 223l159 281l90 -1l-169 -287q29 14 84 14q103 0 172 -65.5t69 -167.5q0 -99 -69 -165.5t-174 -66.5t-172.5 67.5t-67.5 167.5zM309 388q-71 0 -116 -42.5t-45 -117.5q0 -69 47 -114.5t112 -45.5q77 0 122.5 43t45.5 114q0 76 -44.5 119.5t-121.5 43.5z " />
<glyph unicode="7" horiz-adv-x="603" d="M453 661h-382v70h464v-74l-269 -657h-87z" />
<glyph unicode="8" horiz-adv-x="611" d="M543 215q0 -101 -67.5 -159.5t-174.5 -58.5q-103 0 -168 61t-65 160q0 126 106 182q-76 52 -76 151q0 80 58.5 131.5t146.5 51.5q90 0 150 -54t60 -132q0 -102 -79 -150q109 -59 109 -183zM302 67q73 0 117 39t44 109t-42.5 106t-116.5 36q-160 0 -160 -139 q0 -72 41.5 -111.5t116.5 -39.5zM302 431q61 0 96 32t35 85q0 52 -34.5 82t-94.5 30q-65 0 -97.5 -28.5t-32.5 -80.5q0 -56 33.5 -88t94.5 -32z" />
<glyph unicode="9" horiz-adv-x="611" d="M543 501q0 -88 -78 -223l-159 -278h-90l169 294q-29 -18 -84 -18q-103 0 -167.5 65.5t-64.5 162.5q0 98 68.5 165t165.5 67q96 0 168 -69.5t72 -165.5zM302 346q67 0 114 42.5t47 112.5q0 71 -46 116.5t-113 45.5q-72 0 -116 -43.5t-44 -115.5q0 -68 45 -113t113 -45z " />
<glyph unicode=":" horiz-adv-x="251" d="M74 423q0 25 15.5 40t38.5 15q24 0 39.5 -15t15.5 -40q0 -23 -15.5 -38.5t-39.5 -15.5q-22 0 -38 15.5t-16 38.5zM74 51q0 25 15.5 40t38.5 15q24 0 39.5 -15t15.5 -40q0 -23 -15.5 -38.5t-39.5 -15.5q-22 0 -38 15.5t-16 38.5z" />
<glyph unicode=";" horiz-adv-x="302" d="M234 94l-90 -193h-70l70 193h90zM121 423q0 25 15.5 40t38.5 15q24 0 39.5 -15t15.5 -40q0 -23 -15.5 -38.5t-39.5 -15.5q-23 0 -38.5 15.5t-15.5 38.5z" />
<glyph unicode="&#x3c;" horiz-adv-x="594" d="M523 507v-78l-374 -168l374 -185v-79l-455 225v80z" />
<glyph unicode="=" horiz-adv-x="547" d="M76 411h395v-75h-395v75zM76 255h395v-75h-395v75z" />
<glyph unicode="&#x3e;" horiz-adv-x="594" d="M71 429v78l455 -205v-80l-455 -225v79l373 185z" />
<glyph unicode="?" horiz-adv-x="596" d="M297 146q-71 0 -118 41.5t-47 99.5q0 47 28 84.5t75 54.5q11 4 60.5 22.5t72.5 27.5q65 31 65 86q0 101 -139 101q-117 0 -156 -119l-48 47q25 70 79 106.5t126 36.5q97 0 155.5 -48.5t58.5 -123.5q0 -50 -32.5 -90t-84.5 -59q-19 -7 -59.5 -23t-57.5 -22 q-36 -13 -52 -31t-16 -48q0 -32 25 -52t65 -20q87 0 120 93l47 -47q-46 -117 -167 -117zM241 51q0 25 15.5 40t38.5 15q24 0 39.5 -15t15.5 -40q0 -23 -15.5 -38.5t-39.5 -15.5q-23 0 -38.5 15.5t-15.5 38.5z" />
<glyph unicode="@" horiz-adv-x="912" d="M671 152q51 0 75 43t24 135q0 150 -85.5 243t-227.5 93q-139 0 -226 -89.5t-87 -251.5q0 -142 96.5 -239t236.5 -97q122 0 201 58l37 -54q-37 -27 -79 -45q-83 -34 -159 -34q-82 0 -158 32q-75 31 -133 89q-56 55 -88 131q-30 68 -30 159q0 183 107.5 296.5t281.5 113.5 q81 0 159 -32q68 -28 133 -99q95 -105 95 -268q0 -115 -38 -175q-53 -83 -142 -83q-51 0 -80 19t-31 50q-38 -65 -124 -65q-75 0 -119.5 39.5t-44.5 106.5q0 150 207 150h80v21q0 57 -24 81t-81 24q-101 0 -101 -68l-71 -1q0 62 47.5 99t127.5 37q82 0 130.5 -45t48.5 -122 v-205q0 -47 42 -47zM423 152q71 0 99 35t30 121l-71 1q-78 0 -111.5 -19t-33.5 -61q0 -35 23.5 -56t63.5 -21z" />
<glyph unicode="A" horiz-adv-x="592" d="M575 1h-84l-87 282h-221l-81 -282h-85l211 733h121zM290 667l-89 -314h183z" />
<glyph unicode="B" horiz-adv-x="569" d="M345 0h-277v732h224q96 0 153 -52t57 -139q0 -96 -63 -145q46 -26 74 -74.5t28 -107.5q0 -99 -54.5 -156.5t-141.5 -57.5zM344 349h-200v-277h198q51 0 84.5 38.5t33.5 102.5q0 61 -32.5 98.5t-83.5 37.5zM292 662h-148v-239h146q136 0 136 118q0 57 -36.5 89t-97.5 32z " />
<glyph unicode="C" horiz-adv-x="593" d="M525 129l36 -61q-74 -71 -211 -71q-135 0 -209 96t-74 275q0 184 75 276.5t208 92.5q130 0 203 -70l-34 -59q-66 56 -168 56q-93 0 -148.5 -73t-55.5 -220q0 -145 56.5 -221.5t147.5 -76.5q101 0 174 56z" />
<glyph unicode="D" horiz-adv-x="628" d="M275 0h-207v732h218q119 0 197 -99.5t78 -276.5q0 -167 -80 -261.5t-206 -94.5zM284 658h-140v-583h128q98 0 154.5 70t56.5 210q0 144 -55.5 223.5t-143.5 79.5z" />
<glyph unicode="E" horiz-adv-x="566" d="M68 732h468v-70h-392v-238h323v-70h-323v-284h392v-70h-468v732z" />
<glyph unicode="F" horiz-adv-x="565" d="M68 733h467v-70h-391v-240h329v-70h-329v-353h-76v733z" />
<glyph unicode="G" horiz-adv-x="716" d="M431 378h214v-378h-72v106q-76 -109 -223 -109q-135 0 -209 96t-74 275q0 187 75.5 278t207.5 91q186 0 273 -141l-56 -55q-73 127 -216 127q-95 0 -151 -74.5t-56 -222.5t55.5 -226t151.5 -78q99 0 155.5 56.5t65.5 186.5h-141v68z" />
<glyph unicode="H" horiz-adv-x="606" d="M68 733h76v-299h318v299h76v-732h-76v363h-318v-363h-76v732z" />
<glyph unicode="I" horiz-adv-x="507" d="M71 76h144v587h-133v70h343v-70h-133v-587h144v-76h-365v76z" />
<glyph unicode="J" horiz-adv-x="547" d="M403 260v472h76v-472q0 -129 -67.5 -195t-187.5 -67q-140 0 -204 64l42 61q25 -23 69 -37t93 -14q84 0 131.5 47t47.5 141z" />
<glyph unicode="K" horiz-adv-x="556" d="M406 733h90l-227 -301l270 -432h-93l-231 367l-70 -93v-274h-77v733h77v-347z" />
<glyph unicode="L" horiz-adv-x="555" d="M68 732h76v-658l391 1v-75h-467v732z" />
<glyph unicode="M" horiz-adv-x="695" d="M67 733h102l185 -547l167 547h106v-733h-76l1 594l-153 -506h-88l-168 506v-594h-76v733z" />
<glyph unicode="N" horiz-adv-x="607" d="M540 0h-82l-315 598v-598h-76v733h84l313 -591v591h76v-733z" />
<glyph unicode="O" d="M350 737q139 0 218.5 -94t79.5 -274q0 -183 -79 -277.5t-219 -94.5q-135 0 -209 96t-74 275q0 184 75 276.5t208 92.5zM351 67q101 0 160.5 75.5t59.5 227.5q0 148 -59 223t-161 75q-96 0 -151.5 -74.5t-55.5 -222.5q0 -146 57 -225t150 -79z" />
<glyph unicode="P" horiz-adv-x="605" d="M68 733h257q95 0 154 -57t59 -145q0 -93 -60.5 -148.5t-154.5 -55.5h-179v-326h-76v732zM325 662h-181v-262h179q65 0 100.5 34.5t35.5 96.5q0 60 -38 95.5t-96 35.5z" />
<glyph unicode="Q" d="M350 737q139 0 218.5 -94t79.5 -274q0 -165 -63 -256l61 -57l-55 -57l-61 54q-67 -56 -180 -56q-132 0 -207.5 96.5t-75.5 274.5q0 184 76 276.5t207 92.5zM351 67q76 0 126 40l-57 53l52 54l56 -52q43 69 43 208q0 148 -58 223t-162 75q-96 0 -151.5 -74.5t-55.5 -222.5 q0 -146 57 -225t150 -79z" />
<glyph unicode="R" horiz-adv-x="556" d="M449 0l-207 350h-98v-350h-76v733h234q96 0 154.5 -52.5t58.5 -139.5q0 -86 -51 -135t-136 -55l210 -351h-89zM302 662h-158v-239h156q136 0 136 118q0 58 -38 89.5t-96 31.5z" />
<glyph unicode="S" horiz-adv-x="600" d="M530 636l-47 -55l-8.5 8.5t-24 20t-38.5 25t-51 19.5t-62 9q-72 0 -113 -30.5t-41 -80.5q0 -46 18 -66t76 -39l139 -46q95 -35 138 -81.5t43 -124.5q0 -93 -69 -145.5t-192 -52.5q-65 0 -129 26t-96 52l-32 26l50 54q11 -10 30.5 -24t74.5 -38t105 -24q83 0 131 33.5 t48 88.5q0 53 -28 80.5t-100 51.5l-135 45q-83 32 -118 71t-35 109q0 83 63.5 136.5t171.5 53.5q41 0 80 -10.5t65 -25.5t46.5 -30t29.5 -26z" />
<glyph unicode="T" horiz-adv-x="504" d="M20 733h464v-69h-194v-664h-76v664h-194v69z" />
<glyph unicode="U" horiz-adv-x="625" d="M482 259v473h76v-473q0 -260 -245 -262q-245 0 -245 262v473h76v-474q0 -187 169 -187t169 188z" />
<glyph unicode="V" horiz-adv-x="580" d="M17 732h79l200 -658l188 658h79l-211 -733h-109z" />
<glyph unicode="W" horiz-adv-x="798" d="M17 733h79l141 -647l127 587h80l140 -586l118 646h79l-141 -733h-109l-126 520l-113 -520h-109z" />
<glyph unicode="X" horiz-adv-x="579" d="M249 377l-221 356h85l179 -292l174 292h84l-213 -356l226 -377h-86l-184 308l-192 -308h-85z" />
<glyph unicode="Y" horiz-adv-x="580" d="M17 732h89l190 -340l178 340h89l-228 -416v-317h-76v319z" />
<glyph unicode="Z" horiz-adv-x="525" d="M498 662l-382 -590h379v-72h-468v70l381 594h-368v68h458v-70z" />
<glyph unicode="[" horiz-adv-x="324" d="M68 731h185v-70h-109v-861h109v-70h-185v1001z" />
<glyph unicode="\" horiz-adv-x="552" d="M68 731h76l340 -732h-76z" />
<glyph unicode="]" horiz-adv-x="324" d="M71 733h185v-1003h-185v70h109v863h-109v70z" />
<glyph unicode="^" horiz-adv-x="646" d="M153 399h-85l205 332h80l225 -332h-86l-179 266z" />
<glyph unicode="_" horiz-adv-x="627" d="M71 76h485v-75h-485v75z" />
<glyph unicode="`" horiz-adv-x="249" d="M107 711l110 -143h-70l-110 143h70z" />
<glyph unicode="a" horiz-adv-x="524" d="M269 289h82v32q0 62 -26 90t-81 28q-100 0 -100 -68l-74 -1q0 62 48.5 99t128.5 37q82 0 131.5 -45t49.5 -120v-231q0 -30 6 -37t30 -7v-66h-55q-53 0 -55 61q-40 -65 -128 -65q-80 0 -124 37t-44 106q0 72 53.5 111t157.5 39zM220 66q71 0 100.5 34t30.5 119l-73 1 q-79 0 -113 -19t-34 -61q0 -35 24 -54.5t65 -19.5z" />
<glyph unicode="b" horiz-adv-x="545" d="M280 -4q-93 0 -131 52v-48h-76v732h76v-279q52 52 129 52q91 0 146.5 -64.5t55.5 -193.5q0 -126 -53 -188.5t-147 -62.5zM277 433q-71 0 -128 -57v-231q30 -79 131 -79q56 0 90 43.5t34 135.5q0 188 -127 188z" />
<glyph unicode="c" horiz-adv-x="536" d="M463 428l-40 -52q-2 3 -5.5 7t-16 14.5t-27 19t-39.5 15t-53 6.5q-62 0 -100.5 -48.5t-38.5 -138.5q0 -87 37.5 -134t102.5 -47q29 0 55 6.5t42 15t28 17.5t18 15l5 7l41 -51q-2 -3 -6.5 -8.5t-21.5 -20t-37 -25t-53.5 -19.5t-70.5 -9q-100 0 -159 68t-59 184 q0 125 58.5 191t159.5 66q37 0 69.5 -8t52 -19.5t33.5 -23.5t20 -20z" />
<glyph unicode="d" horiz-adv-x="545" d="M265 -4q-200 0 -200 251q0 127 55.5 192.5t146.5 65.5q74 0 129 -55v282h76v-732h-76v51q-42 -55 -131 -55zM268 433q-127 0 -127 -188q0 -92 34 -136t90 -44q47 0 81.5 20.5t49.5 59.5v228q-60 60 -128 60z" />
<glyph unicode="e" horiz-adv-x="532" d="M273 219h-133q4 -76 42 -113t101 -37q28 0 53.5 6.5t41 15.5t27.5 17.5t17 15.5l5 6l41 -51q-2 -3 -6.5 -8.5t-21 -20t-36 -25t-52 -19.5t-69.5 -9q-98 0 -158 65t-60 175q0 135 54.5 202t156.5 67q82 0 133 -40.5t51 -104.5q0 -65 -49.5 -103.5t-137.5 -38.5zM275 439 q-60 0 -93 -34t-40 -115h135q108 0 108 73q0 37 -29 56.5t-81 19.5z" />
<glyph unicode="f" horiz-adv-x="403" d="M218 526v-24h169v-70h-169v-432h-76v432h-98v70h98v34q0 103 42 152.5t116 49.5q33 0 60 -9.5t42 -23t25 -27t13 -22.5l4 -10l-46 -40q-21 36 -42.5 50t-55.5 14q-40 0 -61 -32.5t-21 -111.5z" />
<glyph unicode="g" horiz-adv-x="514" d="M251 503q76 0 127 -40q16 40 56 40l33 -45q-30 -9 -46 -48q24 -46 24 -104q0 -81 -55.5 -131t-138.5 -50q-51 0 -88 18q-13 -16 -13 -41q0 -27 13 -34.5t54 -7.5h108q66 0 109 -45t43 -116q0 -82 -59.5 -127t-166.5 -45q-108 0 -164 44.5t-56 124.5q0 39 17.5 72t45.5 53 q-20 27 -20 79q0 51 39 78q-49 51 -49 128q0 92 50 144t137 53zM198 -13q-25 0 -48 5q-46 -31 -46 -93q0 -103 146 -103q155 0 155 102q0 89 -102 89h-105zM254 195q54 0 87.5 31.5t33.5 87.5t-32.5 88t-88.5 32q-55 0 -87.5 -31t-32.5 -89q0 -54 33 -86.5t87 -32.5z" />
<glyph unicode="h" horiz-adv-x="534" d="M74 732h76v-279q52 52 128 52q89 0 138 -49.5t49 -150.5v-305h-76v303q0 69 -26.5 99t-85.5 30q-71 0 -127 -56v-376h-76v732z" />
<glyph unicode="i" horiz-adv-x="251" d="M89 502h76v-502h-76v502zM74 679q0 23 15 37.5t37 14.5q23 0 37.5 -14t14.5 -38q0 -22 -15 -37t-37 -15t-37 15t-15 37z" />
<glyph unicode="j" horiz-adv-x="289" d="M125 502h77v-649q0 -59 -37 -92t-100 -33q-36 0 -68.5 10.5t-46.5 21.5l-14 10l31 57q43 -28 90 -28q68 0 68 71v632zM112 679q0 23 15 37.5t37 14.5q23 0 37.5 -14t14.5 -38q0 -22 -15 -37t-37 -15t-37 15t-15 37z" />
<glyph unicode="k" horiz-adv-x="477" d="M74 733h76v-431l180 201h89l-162 -182l205 -320h-87l-173 265l-52 -63v-202h-76v732z" />
<glyph unicode="l" horiz-adv-x="222" d="M73 733h76v-733h-76v733z" />
<glyph unicode="m" horiz-adv-x="810" d="M73 502h77v-49q52 52 123 52q106 0 148 -66q55 66 139 66q181 0 181 -200v-305h-76v303q0 71 -24.5 100.5t-81.5 29.5q-61 0 -115 -50q10 -38 10 -81v-302h-76v303q0 71 -24.5 100.5t-81.5 29.5q-65 0 -122 -57v-376h-77v502z" />
<glyph unicode="n" horiz-adv-x="533" d="M73 502h76v-52q55 55 128 55q88 0 137.5 -49t49.5 -151v-305h-76v303q0 70 -27.5 100t-84.5 30q-67 0 -127 -60v-373h-76v502z" />
<glyph unicode="o" horiz-adv-x="596" d="M298 507q104 0 167.5 -67.5t63.5 -186.5q0 -110 -66.5 -183t-164.5 -73q-101 0 -166 73.5t-65 182.5q0 123 61 188.5t170 65.5zM298 69q68 0 111.5 50.5t43.5 132.5q0 83 -43.5 133t-112.5 50t-112 -49.5t-43 -133.5q0 -82 45 -132.5t111 -50.5z" />
<glyph unicode="p" horiz-adv-x="546" d="M281 505q93 0 146.5 -63t53.5 -188q0 -126 -56 -192t-146 -66q-84 0 -129 47v-313h-76v771h76v-49q39 53 131 53zM278 68q127 0 127 188q0 91 -34.5 135.5t-89.5 44.5q-46 0 -81 -21.5t-50 -60.5v-226q58 -60 128 -60z" />
<glyph unicode="q" horiz-adv-x="545" d="M265 507q89 0 131 -52v48h76v-773h-76v314q-48 -46 -129 -46q-90 0 -146 66t-56 192q0 125 53.5 188t146.5 63zM268 70q70 0 128 60v226q-16 39 -50.5 60.5t-80.5 21.5q-55 0 -89.5 -44.5t-34.5 -135.5q0 -97 34 -142.5t93 -45.5z" />
<glyph unicode="r" horiz-adv-x="411" d="M73 502h77v-66q51 69 123 69q78 0 129 -49l-43 -56q-35 33 -87 33q-69 0 -122 -96v-337h-77v502z" />
<glyph unicode="s" horiz-adv-x="501" d="M418 420l-53 -44q-4 7 -12.5 16.5t-38.5 26t-65 16.5q-44 0 -70 -17.5t-26 -48.5q0 -22 16 -36.5t51 -24.5l93 -26q68 -20 99.5 -50.5t31.5 -86.5q0 -66 -51.5 -107t-139.5 -41q-38 0 -72 10.5t-55 26t-37 31t-23 25.5l-7 11l50 42q2 -3 5.5 -8.5t17 -19t29 -24t41.5 -19 t54 -8.5q55 0 84.5 21t29.5 56q0 28 -19 43t-64 28l-91 25q-61 17 -89 48t-28 80q0 61 48 100.5t122 39.5q34 0 63.5 -9t48 -21.5t32 -24.5t19.5 -21z" />
<glyph unicode="t" horiz-adv-x="422" d="M207 732v-230h168v-70h-168v-286q0 -75 60 -75q16 0 33.5 7.5t27.5 15.5l10 8l31 -58q-4 -5 -12.5 -12.5t-36.5 -20t-60 -12.5q-64 0 -97 34t-33 96v303h-98v70h98v230h77z" />
<glyph unicode="u" horiz-adv-x="534" d="M460 1h-77v51q-54 -54 -127 -54q-187 0 -187 197v308h76v-306q0 -124 112 -124q68 0 126 58v372h77v-502z" />
<glyph unicode="v" horiz-adv-x="484" d="M379 502h78l-165 -502h-80l-185 502h79l145 -406z" />
<glyph unicode="w" horiz-adv-x="729" d="M616 502h78l-135 -502h-80l-122 386l-100 -386h-80l-155 502h79l115 -405l100 405h75l126 -407z" />
<glyph unicode="x" horiz-adv-x="470" d="M436 502l-159 -249l159 -253h-90l-116 192l-113 -192h-83l154 255l-154 247h90l112 -186l117 186h83z" />
<glyph unicode="y" horiz-adv-x="494" d="M261 119l117 383h82l-220 -660q-18 -53 -53.5 -83.5t-83.5 -30.5q-33 0 -61.5 12.5t-39.5 25.5l-12 12l33 58q28 -35 80 -35q21 0 40.5 17t30.5 51l50 149l-193 484h83z" />
<glyph unicode="z" horiz-adv-x="504" d="M438 426l-296 -356h304v-70h-391v72l299 360h-293v70h377v-76z" />
<glyph unicode="{" horiz-adv-x="439" d="M183 391v167q0 79 47 126t138 47v-68q-59 0 -84 -27.5t-25 -88.5v-166q0 -45 -14.5 -76.5t-37.5 -44.5t-37.5 -17.5t-27.5 -5.5q9 -1 19.5 -4t29.5 -13.5t33 -25.5t24.5 -42.5t10.5 -62.5v-166q0 -61 25 -89t84 -28v-67q-91 0 -138 47t-47 126v165q0 69 -39 102t-76 33 v49q39 0 77 30t38 100z" />
<glyph unicode="|" horiz-adv-x="222" d="M73 733h76v-863h-76v863z" />
<glyph unicode="}" horiz-adv-x="439" d="M256 558v-167q0 -70 38 -100t77 -30v-49q-37 0 -76 -33t-39 -102v-165q0 -79 -47 -126t-138 -47v67q59 0 84 28t25 89v166q0 35 10.5 62.5t24.5 42.5t32.5 25.5t29 13.5t19.5 4q-12 1 -27 5.5t-37.5 17.5t-37 44.5t-14.5 76.5v166q0 61 -25 88.5t-84 27.5v68 q91 0 138 -47t47 -126z" />
<glyph unicode="~" horiz-adv-x="637" d="M71 300q8 8 22 19.5t55 31t79 19.5q32 0 91 -23t92 -21q27 1 59.5 9.5t50.5 16.5l19 8l27 -33q-9 -8 -24 -20.5t-56 -33.5t-76 -21q-39 0 -100 22.5t-84 24.5q-29 2 -61 -6t-50 -17l-18 -10z" />
<glyph unicode="&#xa2;" horiz-adv-x="536" d="M248 576h73v-68q47 -5 84 -24.5t50 -35.5l13 -17l-43 -52l-1 2l-4.5 4.5l-6.5 6.5t-9 8t-11.5 8.5t-14 9t-16 8t-19.5 7t-22 5.5v-369q35 5 62.5 20t37.5 27l10 12l44 -51q-2 -3 -6 -7.5t-17.5 -16.5t-30 -22.5t-43.5 -20t-57 -13.5v-66h-73v66q-85 11 -134 79.5 t-49 173.5q0 114 49 180.5t134 77.5v68zM140 251q0 -75 28.5 -121.5t79.5 -58.5v366q-108 -23 -108 -186z" />
<glyph unicode="&#xa3;" horiz-adv-x="653" d="M89 424h41q-22 57 -22 113q0 88 58 146.5t142 58.5q42 0 79 -13t59 -32t38.5 -37.5t23.5 -31.5l6 -13l-64 -40q-1 4 -3.5 10.5t-14 23t-26 29.5t-40.5 23.5t-58 10.5q-55 0 -90 -35.5t-35 -97.5q0 -57 26 -115h168v-72h-135q22 -53 22 -113q0 -84 -61 -136q37 24 95 18 q22 -3 70 -27.5t77 -24.5q32 0 48 12.5t35 50.5l54 -38q-15 -51 -52 -76t-86 -25q-27 0 -85 26t-83 26q-67 0 -175 -48l-30 65q5 2 13 6t28 19.5t35.5 34t28 49.5t12.5 66q0 56 -27 115h-72v72z" />
<glyph unicode="&#xa4;" horiz-adv-x="608" d="M537 110l-57 -53l-65 77q-49 -34 -111 -34t-114 35l-65 -78l-57 53l73 72q-41 54 -41 122q0 73 46 127l-76 77l58 53l70 -84q47 30 106 30q57 0 107 -32l71 86l58 -53l-79 -78q46 -54 46 -126q0 -68 -42 -123zM304 436q-54 0 -93.5 -39t-39.5 -93t39.5 -93.5t93.5 -39.5 q53 0 92.5 39.5t39.5 93.5t-39.5 93t-92.5 39z" />
<glyph unicode="&#xa5;" horiz-adv-x="580" d="M17 732h89l190 -340l178 340h89l-195 -351h125v-75h-158v-81h158v-75h-158v-151h-76v151h-167v75h167v81h-167v75h132z" />
<glyph unicode="&#xa6;" horiz-adv-x="222" d="M74 734h75v-383h-75v383zM74 254h75v-383h-75v383z" />
<glyph unicode="&#xa8;" horiz-adv-x="430" d="M73 662q0 23 15 37.5t37 14.5q23 0 37.5 -14t14.5 -38q0 -22 -15 -37t-37 -15t-37 15t-15 37zM253 662q0 23 15 37.5t37 14.5q23 0 37.5 -14t14.5 -38q0 -22 -15 -37t-37 -15t-37 15t-15 37z" />
<glyph unicode="&#xa9;" horiz-adv-x="870" d="M435 -2q-76 0 -142 28q-65 29 -116 78q-55 56 -81 116q-28 66 -28 145q0 75 28 141q28 64 81 119q53 52 116 78q66 28 142 28q75 0 141 -28q64 -26 116 -78q56 -58 81 -119q29 -69 29 -141q0 -73 -29 -142q-26 -63 -81 -119q-49 -49 -116 -78q-66 -28 -141 -28zM435 675 q-130 0 -220.5 -90t-90.5 -220t90.5 -220.5t220.5 -90.5t220.5 90.5t90.5 220.5t-90.5 220t-220.5 90zM551 234l22 -47q-53 -49 -139 -49q-80 0 -125 58.5t-45 165.5q0 108 45.5 165.5t124.5 57.5q83 0 134 -49l-22 -44q-41 34 -111 34q-50 0 -79 -40.5t-29 -121.5 q0 -165 108 -165q73 0 116 35z" />
<glyph unicode="&#xae;" horiz-adv-x="870" d="M435 2q-76 0 -142 28q-65 29 -116 78q-52 54 -81 119q-28 66 -28 142q0 75 28 141q28 64 81 119q53 52 116 78q66 28 142 28q75 0 141 -28q64 -26 116 -78q56 -58 81 -119q29 -69 29 -141q0 -73 -29 -142q-26 -63 -81 -119q-49 -49 -116 -78q-66 -28 -141 -28zM435 679 q-130 0 -220.5 -90t-90.5 -220t90.5 -220.5t220.5 -90.5t220.5 90.5t90.5 220.5t-90.5 220t-220.5 90zM527 149l-113 200h-45v-200h-58v442h145q59 0 92.5 -31.5t33.5 -84.5q0 -55 -27 -87.5t-77 -37.5l115 -201h-66zM450 541h-81v-139h80q73 0 73 73q0 66 -72 66z" />
<glyph unicode="&#xb0;" horiz-adv-x="487" d="M243 384q-73 0 -124 51t-51 124t51 124t124 51q74 0 125 -51t51 -124t-51 -124t-125 -51zM243 663q-44 0 -74 -30t-30 -74t30 -74t74 -30t74.5 30t30.5 74t-30.5 74t-74.5 30z" />
<glyph unicode="&#xb1;" horiz-adv-x="627" d="M351 626v-205h205v-75h-205v-205h-75v205h-205v75h205v205h75zM71 75h485v-75h-485v75z" />
<glyph unicode="&#xb2;" horiz-adv-x="387" d="M314 623q0 -71 -48 -114l-117 -109h170v-53h-251v51q115 106 154 142q36 35 36 82q0 23 -19 39t-47 16q-25 0 -42.5 -11t-36.5 -39l-44 32q50 75 124 75q51 0 86 -31.5t35 -79.5z" />
<glyph unicode="&#xb3;" horiz-adv-x="393" d="M248 680h-168v51h222v-62l-100 -88q52 6 87.5 -28t35.5 -95q0 -52 -40 -86t-102 -34q-77 0 -115 37l19 44q38 -28 96 -28q87 0 87 67q0 45 -29.5 65t-89.5 8l-20 48z" />
<glyph unicode="&#xb4;" horiz-adv-x="251" d="M217 711l-110 -143h-70l110 143h70z" />
<glyph unicode="&#xb6;" horiz-adv-x="653" d="M258 733h324v-75h-107v-658h-76v658h-65v-658h-76v350q-79 1 -134.5 57t-55.5 135q0 78 55.5 134t134.5 57z" />
<glyph unicode="&#xb8;" horiz-adv-x="813" d="M387 42h48v-66q37 2 60 -18t23 -54q0 -33 -22.5 -52.5t-65.5 -19.5q-15 0 -32.5 5.5t-27.5 10.5l-10 6l20 34q22 -13 50 -15q42 0 42 32q0 14 -12 22.5t-33 8.5h-17l-23 10v96z" />
<glyph unicode="&#xb9;" horiz-adv-x="271" d="M148 733h57v-387h-57v315l-43 -41l-36 42z" />
<glyph unicode="&#xbc;" horiz-adv-x="797" d="M613 383h78v-212h48v-51h-48v-120h-57v120h-179v54zM529 731h66l-390 -732h-66zM148 733h57v-387h-57v315l-43 -41l-36 42zM634 327l-114 -156h114v156z" />
<glyph unicode="&#xbd;" horiz-adv-x="776" d="M519 731h66l-390 -732h-66zM148 733h57v-387h-57v315l-43 -41l-36 42zM706 276q0 -71 -48 -114l-117 -109h170v-53h-251v51q115 106 154 142q36 35 36 82q0 23 -19 39t-47 16q-25 0 -42.5 -11t-36.5 -39l-44 32q50 75 124 75q51 0 86 -31.5t35 -79.5z" />
<glyph unicode="&#xbe;" horiz-adv-x="841" d="M581 733h66l-390 -732h-66zM613 383h78v-212h48v-51h-48v-120h-57v120h-179v54zM634 327l-114 -156h114v156zM248 680h-168v51h222v-62l-100 -88q52 6 87.5 -28t35.5 -95q0 -52 -40 -86t-102 -34q-77 0 -115 37l19 44q38 -28 96 -28q87 0 87 67q0 45 -29.5 65t-89.5 8 l-20 48z" />
<glyph unicode="&#xbf;" horiz-adv-x="596" d="M318 350q71 0 118 -41.5t47 -99.5q0 -47 -28 -84.5t-75 -54.5q-11 -4 -60.5 -22.5t-72.5 -27.5q-65 -31 -65 -86q0 -101 139 -101q117 0 156 119l48 -47q-25 -70 -79 -106.5t-126 -36.5q-97 0 -155.5 48.5t-58.5 123.5q0 50 32.5 90t84.5 59q19 7 59.5 23t57.5 22 q36 13 52 31t16 48q0 32 -25 52t-65 20q-87 0 -120 -93l-47 47q47 117 167 117zM374 445q0 -25 -15.5 -40t-38.5 -15q-24 0 -39.5 15t-15.5 40q0 23 15.5 38.5t39.5 15.5q22 0 38 -15.5t16 -38.5z" />
<glyph unicode="&#xc0;" horiz-adv-x="592" d="M575 1h-84l-87 282h-221l-81 -282h-85l211 733h121zM290 667l-89 -314h183zM276 941l110 -143h-70l-110 143h70z" />
<glyph unicode="&#xc1;" horiz-adv-x="592" d="M575 1h-84l-87 282h-221l-81 -282h-85l211 733h121zM290 667l-89 -314h183zM386 941l-110 -143h-70l110 143h70z" />
<glyph unicode="&#xc2;" horiz-adv-x="592" d="M575 1h-84l-87 282h-221l-81 -282h-85l211 733h121zM290 667l-89 -314h183zM371 808l-76 99l-75 -99h-70l110 143h71l110 -143h-70z" />
<glyph unicode="&#xc3;" horiz-adv-x="592" d="M575 1h-84l-87 282h-221l-81 -282h-85l211 733h121zM290 667l-89 -314h183zM122 822q45 60 105 60q33 0 72 -22t71 -22q18 0 34.5 8.5t23.5 17.5l8 9l35 -29q-4 -7 -11 -17t-33 -26.5t-57 -16.5q-38 0 -78 23.5t-66 23.5q-18 0 -35.5 -9.5t-26.5 -18.5l-8 -9z" />
<glyph unicode="&#xc4;" horiz-adv-x="592" d="M575 1h-84l-87 282h-221l-81 -282h-85l211 733h121zM290 667l-89 -314h183zM154 892q0 23 15 37.5t37 14.5q23 0 37.5 -14t14.5 -38q0 -22 -15 -37t-37 -15t-37 15t-15 37zM334 892q0 23 15 37.5t37 14.5q23 0 37.5 -14t14.5 -38q0 -22 -15 -37t-37 -15t-37 15t-15 37z " />
<glyph unicode="&#xc5;" horiz-adv-x="592" d="M575 1h-84l-87 282h-221l-81 -282h-85l211 733h121zM290 667l-89 -314h183zM293 965q40 0 68 -26.5t28 -67.5q0 -40 -28 -67t-68 -27q-37 0 -65 27t-28 67q0 42 26.5 68t66.5 26zM293 832q16 0 27.5 11t11.5 28t-11 28t-28 11t-27 -10.5t-10 -28.5q0 -17 11.5 -28 t25.5 -11z" />
<glyph unicode="&#xc6;" horiz-adv-x="930" d="M859 732v-70h-392v-238h323v-70h-323v-284h392v-70h-468v283h-135l-103 -282h-85l261 731h530zM279 353h112v309z" />
<glyph unicode="&#xc7;" horiz-adv-x="593" d="M525 129l36 -61q-74 -71 -211 -71q-12 0 -17 1v-22q37 2 60 -18t23 -54q0 -33 -22.5 -52.5t-65.5 -19.5q-15 0 -32.5 5.5t-27.5 10.5l-10 6l20 34q22 -13 50 -15q42 0 42 32q0 14 -12 22.5t-33 8.5h-17l-23 10v57q-105 22 -161.5 115.5t-56.5 249.5q0 184 75 276.5 t208 92.5q130 0 203 -70l-34 -59q-66 56 -168 56q-93 0 -148.5 -73t-55.5 -220q0 -145 56.5 -221.5t147.5 -76.5q101 0 174 56z" />
<glyph unicode="&#xc8;" horiz-adv-x="566" d="M68 732h468v-70h-392v-238h323v-70h-323v-284h392v-70h-468v732zM263 941l110 -143h-70l-110 143h70z" />
<glyph unicode="&#xc9;" horiz-adv-x="566" d="M68 732h468v-70h-392v-238h323v-70h-323v-284h392v-70h-468v732zM373 941l-110 -143h-70l110 143h70z" />
<glyph unicode="&#xca;" horiz-adv-x="566" d="M68 732h468v-70h-392v-238h323v-70h-323v-284h392v-70h-468v732zM358 808l-76 99l-75 -99h-70l110 143h71l110 -143h-70z" />
<glyph unicode="&#xcb;" horiz-adv-x="566" d="M68 732h468v-70h-392v-238h323v-70h-323v-284h392v-70h-468v732zM141 892q0 23 15 37.5t37 14.5q23 0 37.5 -14t14.5 -38q0 -22 -15 -37t-37 -15t-37 15t-15 37zM321 892q0 23 15 37.5t37 14.5q23 0 37.5 -14t14.5 -38q0 -22 -15 -37t-37 -15t-37 15t-15 37z" />
<glyph unicode="&#xcc;" horiz-adv-x="507" d="M71 76h144v587h-133v70h343v-70h-133v-587h144v-76h-365v76zM233 941l110 -143h-70l-110 143h70z" />
<glyph unicode="&#xcd;" horiz-adv-x="507" d="M71 76h144v587h-133v70h343v-70h-133v-587h144v-76h-365v76zM343 941l-110 -143h-70l110 143h70z" />
<glyph unicode="&#xce;" horiz-adv-x="507" d="M71 76h144v587h-133v70h343v-70h-133v-587h144v-76h-365v76zM329 808l-76 99l-75 -99h-70l110 143h71l110 -143h-70z" />
<glyph unicode="&#xcf;" horiz-adv-x="507" d="M71 76h144v587h-133v70h343v-70h-133v-587h144v-76h-365v76zM111 892q0 23 15 37.5t37 14.5q23 0 37.5 -14t14.5 -38q0 -22 -15 -37t-37 -15t-37 15t-15 37zM291 892q0 23 15 37.5t37 14.5q23 0 37.5 -14t14.5 -38q0 -22 -15 -37t-37 -15t-37 15t-15 37z" />
<glyph unicode="&#xd0;" horiz-adv-x="628" d="M-10 409h78v323h218q119 0 197 -99.5t78 -276.5q0 -167 -80 -261.5t-206 -94.5h-207v334h-78v75zM284 658h-140v-249h171v-75h-171v-259h128q98 0 154.5 70t56.5 210q0 144 -55.5 223.5t-143.5 79.5z" />
<glyph unicode="&#xd1;" horiz-adv-x="607" d="M540 0h-82l-315 598v-598h-76v733h84l313 -591v591h76v-733zM129 822q45 60 105 60q32 0 71 -22t72 -22q18 0 34.5 8.5t24.5 17.5l7 9l35 -29q-4 -7 -11 -17t-33 -26.5t-57 -16.5q-37 0 -78 23.5t-66 23.5q-18 0 -35.5 -9.5t-25.5 -18.5l-9 -9z" />
<glyph unicode="&#xd2;" d="M350 737q139 0 218.5 -94t79.5 -274q0 -183 -79 -277.5t-219 -94.5q-135 0 -209 96t-74 275q0 184 75 276.5t208 92.5zM351 67q101 0 160.5 75.5t59.5 227.5q0 148 -59 223t-161 75q-96 0 -151.5 -74.5t-55.5 -222.5q0 -146 57 -225t150 -79zM337 941l110 -143h-70 l-110 143h70z" />
<glyph unicode="&#xd3;" d="M350 737q139 0 218.5 -94t79.5 -274q0 -183 -79 -277.5t-219 -94.5q-135 0 -209 96t-74 275q0 184 75 276.5t208 92.5zM351 67q101 0 160.5 75.5t59.5 227.5q0 148 -59 223t-161 75q-96 0 -151.5 -74.5t-55.5 -222.5q0 -146 57 -225t150 -79zM447 941l-110 -143h-70 l110 143h70z" />
<glyph unicode="&#xd4;" d="M350 737q139 0 218.5 -94t79.5 -274q0 -183 -79 -277.5t-219 -94.5q-135 0 -209 96t-74 275q0 184 75 276.5t208 92.5zM351 67q101 0 160.5 75.5t59.5 227.5q0 148 -59 223t-161 75q-96 0 -151.5 -74.5t-55.5 -222.5q0 -146 57 -225t150 -79zM433 808l-76 99l-75 -99h-70 l110 143h71l110 -143h-70z" />
<glyph unicode="&#xd5;" d="M350 737q139 0 218.5 -94t79.5 -274q0 -183 -79 -277.5t-219 -94.5q-135 0 -209 96t-74 275q0 184 75 276.5t208 92.5zM351 67q101 0 160.5 75.5t59.5 227.5q0 148 -59 223t-161 75q-96 0 -151.5 -74.5t-55.5 -222.5q0 -146 57 -225t150 -79zM183 822q45 60 105 60 q32 0 71 -22t72 -22q18 0 34.5 8.5t24.5 17.5l7 9l35 -29q-4 -7 -11 -17t-33 -26.5t-57 -16.5q-37 0 -78 23.5t-66 23.5q-18 0 -35.5 -9.5t-25.5 -18.5l-9 -9z" />
<glyph unicode="&#xd6;" d="M350 737q139 0 218.5 -94t79.5 -274q0 -183 -79 -277.5t-219 -94.5q-135 0 -209 96t-74 275q0 184 75 276.5t208 92.5zM351 67q101 0 160.5 75.5t59.5 227.5q0 148 -59 223t-161 75q-96 0 -151.5 -74.5t-55.5 -222.5q0 -146 57 -225t150 -79zM215 892q0 23 15 37.5 t37 14.5q23 0 37.5 -14t14.5 -38q0 -22 -15 -37t-37 -15t-37 15t-15 37zM395 892q0 23 15 37.5t37 14.5q23 0 37.5 -14t14.5 -38q0 -22 -15 -37t-37 -15t-37 15t-15 37z" />
<glyph unicode="&#xd7;" horiz-adv-x="603" d="M476 85l-175 176l-175 -176l-52 50l175 176l-175 177l52 50l175 -176l175 176l53 -50l-176 -177l176 -176z" />
<glyph unicode="&#xd8;" d="M489 771h76l-37 -85q120 -92 120 -317q0 -184 -79 -279.5t-219 -95.5q-56 0 -102 18l-23 -53h-76l36 84q-118 90 -118 325q0 185 75.5 278.5t207.5 93.5q64 0 115 -22zM144 371q0 -176 71 -251l225 532q-43 19 -89 19q-98 0 -152.5 -75.5t-54.5 -224.5zM351 64 q101 0 159 75.5t58 230.5q0 175 -68 244l-225 -533q37 -17 76 -17z" />
<glyph unicode="&#xd9;" horiz-adv-x="625" d="M482 259v473h76v-473q0 -260 -245 -262q-245 0 -245 262v473h76v-474q0 -187 169 -187t169 188zM292 941l110 -143h-70l-110 143h70z" />
<glyph unicode="&#xda;" horiz-adv-x="625" d="M482 259q0 -188 -169 -188t-169 187v474h-76v-473q0 -262 245 -262q245 2 245 262v473h-76v-473zM402 941l-110 -143h-70l110 143h70z" />
<glyph unicode="&#xdb;" horiz-adv-x="625" d="M482 259q0 -188 -169 -188t-169 187v474h-76v-473q0 -262 245 -262q245 2 245 262v473h-76v-473zM388 808l-76 99l-75 -99h-70l110 143h71l110 -143h-70z" />
<glyph unicode="&#xdc;" horiz-adv-x="625" d="M482 259v473h76v-473q0 -260 -245 -262q-245 0 -245 262v473h76v-474q0 -187 169 -187t169 188zM170 892q0 23 15 37.5t37 14.5q23 0 37.5 -14t14.5 -38q0 -22 -15 -37t-37 -15t-37 15t-15 37zM350 892q0 23 15 37.5t37 14.5q23 0 37.5 -14t14.5 -38q0 -22 -15 -37 t-37 -15t-37 15t-15 37z" />
<glyph unicode="&#xdd;" horiz-adv-x="580" d="M17 732h89l190 -340l178 340h89l-228 -416v-317h-76v319zM380 941l-110 -143h-70l110 143h70z" />
<glyph unicode="&#xe0;" horiz-adv-x="524" d="M222 711l110 -143h-70l-110 143h70zM268 289h82v32q0 62 -26 90t-81 28q-100 0 -100 -68l-74 -1q0 62 48.5 99t128.5 37q82 0 131.5 -45t49.5 -120v-231q0 -30 6 -37t30 -7v-66h-55q-53 0 -55 61q-40 -65 -128 -65q-80 0 -124 37t-44 106q0 72 53.5 111t157.5 39zM219 66 q71 0 100.5 34t30.5 119l-73 1q-79 0 -113 -19t-34 -61q0 -35 24 -54.5t65 -19.5z" />
<glyph unicode="&#xe1;" horiz-adv-x="524" d="M332 711l-110 -143h-70l110 143h70zM268 289h82v32q0 62 -26 90t-81 28q-100 0 -100 -68l-74 -1q0 62 48.5 99t128.5 37q82 0 131.5 -45t49.5 -120v-231q0 -30 6 -37t30 -7v-66h-55q-53 0 -55 61q-40 -65 -128 -65q-80 0 -124 37t-44 106q0 72 53.5 111t157.5 39zM219 66 q71 0 100.5 34t30.5 119l-73 1q-79 0 -113 -19t-34 -61q0 -35 24 -54.5t65 -19.5z" />
<glyph unicode="&#xe2;" horiz-adv-x="524" d="M268 289h82v32q0 62 -26 90t-81 28q-100 0 -100 -68l-74 -1q0 62 48.5 99t128.5 37q82 0 131.5 -45t49.5 -120v-231q0 -30 6 -37t30 -7v-66h-55q-53 0 -55 61q-40 -65 -128 -65q-80 0 -124 37t-44 106q0 72 53.5 111t157.5 39zM219 66q71 0 100.5 34t30.5 119l-73 1 q-79 0 -113 -19t-34 -61q0 -35 24 -54.5t65 -19.5zM327 578l-76 99l-75 -99h-70l110 143h71l110 -143h-70z" />
<glyph unicode="&#xe3;" horiz-adv-x="524" d="M268 289h82v32q0 62 -26 90t-81 28q-100 0 -100 -68l-74 -1q0 62 48.5 99t128.5 37q82 0 131.5 -45t49.5 -120v-231q0 -30 6 -37t30 -7v-66h-55q-53 0 -55 61q-40 -65 -128 -65q-80 0 -124 37t-44 106q0 72 53.5 111t157.5 39zM219 66q71 0 100.5 34t30.5 119l-73 1 q-79 0 -113 -19t-34 -61q0 -35 24 -54.5t65 -19.5zM75 592q45 60 105 60q32 0 71 -22t72 -22q18 0 34.5 8.5t24.5 17.5l7 9l35 -29q-4 -7 -11 -17t-33 -26.5t-57 -16.5q-37 0 -77.5 23.5t-66.5 23.5q-18 0 -35.5 -9.5t-25.5 -18.5l-9 -9z" />
<glyph unicode="&#xe4;" horiz-adv-x="524" d="M268 289h82v32q0 62 -26 90t-81 28q-100 0 -100 -68l-74 -1q0 62 48.5 99t128.5 37q82 0 131.5 -45t49.5 -120v-231q0 -30 6 -37t30 -7v-66h-55q-53 0 -55 61q-40 -65 -128 -65q-80 0 -124 37t-44 106q0 72 53.5 111t157.5 39zM219 66q71 0 100.5 34t30.5 119l-73 1 q-79 0 -113 -19t-34 -61q0 -35 24 -54.5t65 -19.5zM92 662q0 23 15 37.5t37 14.5q23 0 37.5 -14t14.5 -38q0 -22 -15 -37t-37 -15t-37 15t-15 37zM272 662q0 23 15 37.5t37 14.5q23 0 37.5 -14t14.5 -38q0 -22 -15 -37t-37 -15t-37 15t-15 37z" />
<glyph unicode="&#xe5;" horiz-adv-x="524" d="M268 289h82v32q0 62 -26 90t-81 28q-100 0 -100 -68l-74 -1q0 62 48.5 99t128.5 37q82 0 131.5 -45t49.5 -120v-231q0 -30 6 -37t30 -7v-66h-55q-53 0 -55 61q-40 -65 -128 -65q-80 0 -124 37t-44 106q0 72 53.5 111t157.5 39zM219 66q71 0 100.5 34t30.5 119l-73 1 q-79 0 -113 -19t-34 -61q0 -35 24 -54.5t65 -19.5zM239 735q40 0 68 -26.5t28 -67.5q0 -40 -28 -67t-68 -27q-37 0 -65 27t-28 67q0 42 26.5 68t66.5 26zM239 602q16 0 27.5 11t11.5 28t-11 28t-28 11t-27 -10.5t-10 -28.5q0 -17 11.5 -28t25.5 -11z" />
<glyph unicode="&#xe7;" horiz-adv-x="536" d="M463 428l-40 -52q-2 3 -5.5 7t-16 14.5t-27 19t-39.5 15t-53 6.5q-62 0 -100.5 -48.5t-38.5 -138.5q0 -87 37.5 -134t102.5 -47q29 0 55 6.5t42 15t28 17.5t18 15l5 7l41 -51q-2 -3 -6.5 -8t-20 -18.5t-33.5 -24t-49 -20t-65 -10.5v-23q37 2 60 -18t23 -54 q0 -33 -22.5 -52.5t-65.5 -19.5q-15 0 -32.5 5.5t-27.5 10.5l-10 6l20 34q22 -13 50 -15q42 0 42 32q0 14 -12 22.5t-33 8.5h-17l-23 10v54q-86 11 -135.5 77.5t-49.5 172.5q0 125 58.5 191t159.5 66q37 0 69.5 -8t52 -19.5t33.5 -23.5t20 -20z" />
<glyph unicode="&#xe8;" horiz-adv-x="532" d="M242 711l110 -143h-70l-110 143h70zM273 219h-133q4 -76 42 -113t101 -37q28 0 53.5 6.5t41 15.5t27.5 17.5t17 15.5l5 6l41 -51q-2 -3 -6.5 -8.5t-21 -20t-36 -25t-52 -19.5t-69.5 -9q-98 0 -158 65t-60 175q0 135 54.5 202t156.5 67q82 0 133 -40.5t51 -104.5 q0 -65 -49.5 -103.5t-137.5 -38.5zM275 439q-60 0 -93 -34t-40 -115h135q108 0 108 73q0 37 -29 56.5t-81 19.5z" />
<glyph unicode="&#xe9;" horiz-adv-x="532" d="M342 711l-110 -143h-70l110 143h70zM273 219h-133q4 -76 42 -113t101 -37q28 0 53.5 6.5t41 15.5t27.5 17.5t17 15.5l5 6l41 -51q-2 -3 -6.5 -8.5t-21 -20t-36 -25t-52 -19.5t-69.5 -9q-98 0 -158 65t-60 175q0 135 54.5 202t156.5 67q82 0 133 -40.5t51 -104.5 q0 -65 -49.5 -103.5t-137.5 -38.5zM275 439q-60 0 -93 -34t-40 -115h135q108 0 108 73q0 37 -29 56.5t-81 19.5z" />
<glyph unicode="&#xea;" horiz-adv-x="532" d="M273 219h-133q4 -76 42 -113t101 -37q28 0 53.5 6.5t41 15.5t27.5 17.5t17 15.5l5 6l41 -51q-2 -3 -6.5 -8.5t-21 -20t-36 -25t-52 -19.5t-69.5 -9q-98 0 -158 65t-60 175q0 135 54.5 202t156.5 67q82 0 133 -40.5t51 -104.5q0 -65 -49.5 -103.5t-137.5 -38.5zM275 439 q-60 0 -93 -34t-40 -115h135q108 0 108 73q0 37 -29 56.5t-81 19.5zM341 578l-76 99l-75 -99h-70l110 143h71l110 -143h-70z" />
<glyph unicode="&#xeb;" horiz-adv-x="532" d="M273 219h-133q4 -76 42 -113t101 -37q28 0 53.5 6.5t41 15.5t27.5 17.5t17 15.5l5 6l41 -51q-2 -3 -6.5 -8.5t-21 -20t-36 -25t-52 -19.5t-69.5 -9q-98 0 -158 65t-60 175q0 135 54.5 202t156.5 67q82 0 133 -40.5t51 -104.5q0 -65 -49.5 -103.5t-137.5 -38.5zM275 439 q-60 0 -93 -34t-40 -115h135q108 0 108 73q0 37 -29 56.5t-81 19.5zM122 662q0 23 15 37.5t37 14.5q23 0 37.5 -14t14.5 -38q0 -22 -15 -37t-37 -15t-37 15t-15 37zM302 662q0 23 15 37.5t37 14.5q23 0 37.5 -14t14.5 -38q0 -22 -15 -37t-37 -15t-37 15t-15 37z" />
<glyph unicode="&#xec;" horiz-adv-x="251" d="M84 502h76v-502h-76v502zM107 711l110 -143h-70l-110 143h70z" />
<glyph unicode="&#xed;" horiz-adv-x="251" d="M89 502h76v-502h-76v502zM217 711l-110 -143h-70l110 143h70z" />
<glyph unicode="&#xee;" horiz-adv-x="251" d="M89 502h76v-502h-76v502zM201 578l-76 99l-75 -99h-70l110 143h71l110 -143h-70z" />
<glyph unicode="&#xef;" horiz-adv-x="355" d="M138 502h76v-502h-76v502zM36 662q0 23 15 37.5t37 14.5q23 0 37.5 -14t14.5 -38q0 -22 -15 -37t-37 -15t-37 15t-15 37zM216 662q0 23 15 37.5t37 14.5q23 0 37.5 -14t14.5 -38q0 -22 -15 -37t-37 -15t-37 15t-15 37z" />
<glyph unicode="&#xf1;" horiz-adv-x="533" d="M73 502h76v-52q55 55 128 55q88 0 137.5 -49t49.5 -151v-305h-76v303q0 70 -27.5 100t-84.5 30q-67 0 -127 -60v-373h-76v502zM92 592q45 60 105 60q33 0 72 -22t71 -22q18 0 34.5 8.5t23.5 17.5l8 9l35 -29q-4 -7 -11 -17t-33 -26.5t-57 -16.5q-38 0 -78 23.5t-66 23.5 q-18 0 -35.5 -9.5t-26.5 -18.5l-8 -9z" />
<glyph unicode="&#xf2;" horiz-adv-x="598" d="M262 711l110 -143h-70l-110 143h70zM299 507q104 0 167.5 -67.5t63.5 -186.5q0 -110 -66.5 -183t-164.5 -73q-101 0 -166 73.5t-65 182.5q0 123 61 188.5t170 65.5zM299 69q68 0 111.5 50.5t43.5 132.5q0 83 -43.5 133t-112.5 50t-112 -49.5t-43 -133.5q0 -82 45 -132.5 t111 -50.5z" />
<glyph unicode="&#xf3;" horiz-adv-x="598" d="M362 711l-110 -143h-70l110 143h70zM299 507q104 0 167.5 -67.5t63.5 -186.5q0 -110 -66.5 -183t-164.5 -73q-101 0 -166 73.5t-65 182.5q0 123 61 188.5t170 65.5zM299 69q68 0 111.5 50.5t43.5 132.5q0 83 -43.5 133t-112.5 50t-112 -49.5t-43 -133.5q0 -82 45 -132.5 t111 -50.5z" />
<glyph unicode="&#xf4;" horiz-adv-x="598" d="M299 507q104 0 167.5 -67.5t63.5 -186.5q0 -110 -66.5 -183t-164.5 -73q-101 0 -166 73.5t-65 182.5q0 123 61 188.5t170 65.5zM299 69q68 0 111.5 50.5t43.5 132.5q0 83 -43.5 133t-112.5 50t-112 -49.5t-43 -133.5q0 -82 45 -132.5t111 -50.5zM373 578l-76 99l-75 -99 h-70l110 143h71l110 -143h-70z" />
<glyph unicode="&#xf5;" horiz-adv-x="598" d="M299 507q104 0 167.5 -67.5t63.5 -186.5q0 -110 -66.5 -183t-164.5 -73q-101 0 -166 73.5t-65 182.5q0 123 61 188.5t170 65.5zM299 69q68 0 111.5 50.5t43.5 132.5q0 83 -43.5 133t-112.5 50t-112 -49.5t-43 -133.5q0 -82 45 -132.5t111 -50.5zM125 592q45 60 105 60 q32 0 71 -22t72 -22q18 0 34.5 8.5t24.5 17.5l7 9l35 -29q-4 -7 -11 -17t-33 -26.5t-57 -16.5q-37 0 -78 23.5t-66 23.5q-18 0 -35.5 -9.5t-25.5 -18.5l-9 -9z" />
<glyph unicode="&#xf6;" horiz-adv-x="598" d="M299 507q104 0 167.5 -67.5t63.5 -186.5q0 -110 -66.5 -183t-164.5 -73q-101 0 -166 73.5t-65 182.5q0 123 61 188.5t170 65.5zM299 69q68 0 111.5 50.5t43.5 132.5q0 83 -43.5 133t-112.5 50t-112 -49.5t-43 -133.5q0 -82 45 -132.5t111 -50.5zM157 662q0 23 15 37.5 t37 14.5q23 0 37.5 -14t14.5 -38q0 -22 -15 -37t-37 -15t-37 15t-15 37zM337 662q0 23 15 37.5t37 14.5q23 0 37.5 -14t14.5 -38q0 -22 -15 -37t-37 -15t-37 15t-15 37z" />
<glyph unicode="&#xf7;" horiz-adv-x="627" d="M71 351h485v-75h-485v75zM262 499q0 25 15.5 40t38.5 15q24 0 39.5 -15t15.5 -40q0 -23 -15.5 -38.5t-39.5 -15.5q-22 0 -38 15.5t-16 38.5zM262 127q0 25 15.5 40t38.5 15q24 0 39.5 -15t15.5 -40q0 -23 -15.5 -38.5t-39.5 -15.5q-22 0 -38 15.5t-16 38.5z" />
<glyph unicode="&#xf8;" horiz-adv-x="598" d="M299 507q37 0 68 -9l24 53h76l-37 -81q100 -66 100 -217q0 -110 -66.5 -183t-164.5 -73q-44 0 -79 13l-23 -51h-76l39 85q-92 73 -92 209q0 123 61 188.5t170 65.5zM299 69q68 0 111.5 50.5t43.5 132.5q0 94 -57 146l-146 -321q24 -8 48 -8zM143 252q0 -85 49 -137 l144 315q-20 5 -38 5q-69 0 -112 -49.5t-43 -133.5z" />
<glyph unicode="&#xf9;" horiz-adv-x="529" d="M242 711l110 -143h-70l-110 143h70zM460 1h-77v51q-54 -54 -127 -54q-187 0 -187 197v308h76v-306q0 -124 112 -124q68 0 126 58v372h77v-502z" />
<glyph unicode="&#xfa;" horiz-adv-x="529" d="M342 711l-110 -143h-70l110 143h70zM460 1h-77v51q-54 -54 -127 -54q-187 0 -187 197v308h76v-306q0 -124 112 -124q68 0 126 58v372h77v-502z" />
<glyph unicode="&#xfb;" horiz-adv-x="529" d="M460 1h-77v51q-54 -54 -127 -54q-187 0 -187 197v308h76v-306q0 -124 112 -124q68 0 126 58v372h77v-502zM335 578l-76 99l-75 -99h-70l110 143h71l110 -143h-70z" />
<glyph unicode="&#xfc;" horiz-adv-x="529" d="M460 1h-77v51q-54 -54 -127 -54q-187 0 -187 197v308h76v-306q0 -124 112 -124q68 0 126 58v372h77v-502zM122 662q0 23 15 37.5t37 14.5q23 0 37.5 -14t14.5 -38q0 -22 -15 -37t-37 -15t-37 15t-15 37zM302 662q0 23 15 37.5t37 14.5q23 0 37.5 -14t14.5 -38 q0 -22 -15 -37t-37 -15t-37 15t-15 37z" />
<glyph unicode="&#xfd;" horiz-adv-x="492" d="M376 502l-117 -383l-147 383h-83l193 -484l-50 -149q-11 -34 -30.5 -51t-40.5 -17q-23 0 -43 8.5t-28 17.5l-9 9l-33 -58q4 -6 12.5 -14t38 -22t62.5 -14q48 0 83.5 30.5t53.5 83.5l220 660h-82zM336 711l-110 -143h-70l110 143h70z" />
<glyph unicode="&#xff;" horiz-adv-x="492" d="M259 119l117 383h82l-220 -660q-18 -53 -53.5 -83.5t-83.5 -30.5q-33 0 -61.5 12.5t-39.5 25.5l-12 12l33 58q28 -35 80 -35q21 0 40.5 17t30.5 51l50 149l-193 484h83zM104 662q0 23 15 37.5t37 14.5q23 0 37.5 -14t14.5 -38q0 -22 -15 -37t-37 -15t-37 15t-15 37z M284 662q0 23 15 37.5t37 14.5q23 0 37.5 -14t14.5 -38q0 -22 -15 -37t-37 -15t-37 15t-15 37z" />
<glyph unicode="&#x141;" horiz-adv-x="575" />
<glyph unicode="&#x160;" horiz-adv-x="600" d="M530 636l-47 -55l-8.5 8.5t-24 20t-38.5 25t-51 19.5t-62 9q-72 0 -113 -30.5t-41 -80.5q0 -46 18 -66t76 -39l139 -46q95 -35 138 -81.5t43 -124.5q0 -93 -69 -145.5t-192 -52.5q-65 0 -129 26t-96 52l-32 26l50 54q11 -10 30.5 -24t74.5 -38t105 -24q83 0 131 33.5 t48 88.5q0 53 -28 80.5t-100 51.5l-135 45q-83 32 -118 71t-35 109q0 83 63.5 136.5t171.5 53.5q41 0 80 -10.5t65 -25.5t46.5 -30t29.5 -26zM299 852l76 99h70l-110 -146h-71l-110 146h70z" />
<glyph unicode="&#x161;" horiz-adv-x="501" d="M418 420l-53 -44q-4 7 -12.5 16.5t-38.5 26t-65 16.5q-44 0 -70 -17.5t-26 -48.5q0 -22 16 -36.5t51 -24.5l93 -26q68 -20 99.5 -50.5t31.5 -86.5q0 -66 -51.5 -107t-139.5 -41q-38 0 -72 10.5t-55 26t-37 31t-23 25.5l-7 11l50 42q2 -3 5.5 -8.5t17 -19t29 -24t41.5 -19 t54 -8.5q55 0 84.5 21t29.5 56q0 28 -19 43t-64 28l-91 25q-61 17 -89 48t-28 80q0 61 48 100.5t122 39.5q34 0 63.5 -9t48 -21.5t32 -24.5t19.5 -21zM250 622l76 99h70l-110 -146h-71l-110 146h70z" />
<glyph unicode="&#x178;" horiz-adv-x="580" d="M17 732h89l190 -340l178 340h89l-228 -416v-317h-76v319zM148 892q0 23 15 37.5t37 14.5q23 0 37.5 -14t14.5 -38q0 -22 -15 -37t-37 -15t-37 15t-15 37zM328 892q0 23 15 37.5t37 14.5q23 0 37.5 -14t14.5 -38q0 -22 -15 -37t-37 -15t-37 15t-15 37z" />
<glyph unicode="&#x17d;" horiz-adv-x="525" d="M498 662l-382 -590h379v-72h-468v70l381 594h-368v68h458v-70zM262 852l76 99h70l-110 -146h-71l-110 146h70z" />
<glyph unicode="&#x17e;" horiz-adv-x="504" d="M438 426l-296 -356h304v-70h-391v72l299 360h-293v70h377v-76zM251 622l76 99h70l-110 -146h-71l-110 146h70z" />
<glyph unicode="&#x2c6;" horiz-adv-x="427" d="M289 578l-76 99l-75 -99h-70l110 143h71l110 -143h-70z" />
<glyph unicode="&#x2c7;" horiz-adv-x="427" d="M213 622l76 99h70l-110 -146h-71l-110 146h70z" />
<glyph unicode="&#x2da;" horiz-adv-x="325" d="M160 735q40 0 68 -26.5t28 -67.5q0 -40 -28 -67t-68 -27q-37 0 -65 27t-28 67q0 42 26.5 68t66.5 26zM160 602q16 0 27.5 11t11.5 28t-11 28t-28 11t-27 -10.5t-10 -28.5q0 -17 11.5 -28t25.5 -11z" />
<glyph unicode="&#x2dc;" horiz-adv-x="813" d="M244 592q45 60 105 60q33 0 71.5 -22t71.5 -22q18 0 34.5 8.5t23.5 17.5l8 9l35 -29q-4 -7 -11 -17t-33 -26.5t-57 -16.5q-38 0 -78 23.5t-66 23.5q-18 0 -35.5 -9.5t-26.5 -18.5l-8 -9z" />
<glyph unicode="&#x3bc;" horiz-adv-x="529" d="M460 1h-77v51q-54 -54 -127 -54q-68 0 -111 25v-293h-76v773h76v-306q0 -124 112 -124q68 0 126 58v372h77v-502z" />
<glyph unicode="&#x2013;" horiz-adv-x="597" d="M76 351h445v-75h-445v75z" />
<glyph unicode="&#x2014;" horiz-adv-x="877" d="M76 351h725v-75h-725v75z" />
<glyph unicode="&#x2018;" horiz-adv-x="302" d="M74 545l90 193h70l-70 -193h-90z" />
<glyph unicode="&#x2019;" horiz-adv-x="302" d="M234 734l-90 -193h-70l70 193h90z" />
<glyph unicode="&#x201c;" horiz-adv-x="443" d="M210 545l90 193h70l-70 -193h-90zM73 545l90 193h70l-70 -193h-90z" />
<glyph unicode="&#x201d;" horiz-adv-x="443" d="M233 734l-90 -193h-70l70 193h90zM370 734l-90 -193h-70l70 193h90z" />
<glyph unicode="&#x2020;" horiz-adv-x="577" d="M71 480h175v253h76v-253h184v-65h-184v-685h-76v685h-175v65z" />
<glyph unicode="&#x2021;" horiz-adv-x="577" d="M71 105h177v301h-177v65h177v262h75v-262h183v-65h-183v-301h183v-65h-183v-308h-75v308h-177v65z" />
<glyph unicode="&#x2022;" horiz-adv-x="310" d="M73 315q0 37 23.5 60t57.5 23q37 0 60 -22.5t23 -60.5q0 -35 -24.5 -58t-58.5 -23q-32 0 -56.5 23t-24.5 58z" />
<glyph unicode="&#x2044;" horiz-adv-x="390" d="M307 731h76l-340 -732h-76z" />
<glyph unicode="&#x20ac;" horiz-adv-x="663" d="M88 335h45v36q0 27 1 41h-66l20 72h51q35 256 247 256q124 0 189 -109l-48 -48q-25 48 -57.5 68t-82.5 20q-71 0 -113 -44t-57 -143h229l-20 -72h-215q-1 -13 -1 -38q0 -26 1 -39h235l-20 -72h-210q14 -100 55 -147t116 -47q55 0 90 23.5t62 74.5l53 -47 q-36 -63 -83.5 -92t-122.5 -29q-112 0 -172.5 66t-75.5 198h-70z" />
<glyph unicode="&#x2122;" horiz-adv-x="510" d="M248 732h58l46 -161l38 161h60v-231h-42v175l-33 -155h-44l-41 155v-175h-42v231zM68 732h151v-38h-54v-193h-42v193h-55v38z" />
<glyph unicode="&#x2212;" horiz-adv-x="637" d="M76 351h485v-75h-485v75z" />
<glyph unicode="&#xe000;" horiz-adv-x="500" d="M0 500h500v-500h-500v500z" />
<glyph unicode="&#xfb02;" horiz-adv-x="665" />
<glyph d="M164 342q0 11 12 2q2 -1 6 -4q37 -27 66 -27q17 0 30.5 13t21.5 28t23 28t34 13q33 0 59.5 26.5t59.5 26.5q76 0 76 -76q0 -133 -51.5 -210t-143.5 -77q-83 0 -138 69.5t-55 187.5zM350 737q139 0 218.5 -94t79.5 -274q0 -183 -79 -277.5t-219 -94.5q-135 0 -209 96 t-74 275q0 184 75 276.5t208 92.5zM351 67q101 0 160.5 75.5t59.5 227.5q0 148 -59 223t-161 75q-96 0 -151.5 -74.5t-55.5 -222.5q0 -146 57 -225t150 -79z" />
<glyph horiz-adv-x="921" d="M201 127h-130l103 152h-75l89 131h-65l113 174l114 -174h-67l90 -131h-76l100 -145l139 203h-105l123 181h-90l157 221l157 -221h-91l123 -181h-104l144 -210h-188v-127h-76v127h-309v-127h-76v127z" />
<glyph horiz-adv-x="997" d="M926 0h-855l428 740z" />
<glyph horiz-adv-x="859" d="M791 725v-715h-723v715h723zM134 659v-583h591v583h-591z" />
<glyph horiz-adv-x="886" d="M424 723l391 -403l-333 -319h-411v414zM664 419l-141 144l-243 -213l9 -134l143 -15zM268 40h178l-24 122l-170 18l-11 162l-131 33v-168zM421 668l-294 -257l127 -31l242 212zM460 173l23 -117l276 265l-68 69zM110 40h103l-103 108v-108z" />
<glyph horiz-adv-x="628" d="M275 0h-207v732h218q119 0 197 -99.5t78 -276.5q0 -167 -80 -261.5t-206 -94.5zM284 658h-140v-583h128q98 0 154.5 70t56.5 210q0 144 -55.5 223.5t-143.5 79.5zM192 429q5 -25 28 -25q13 0 20.5 8t8.5 17l1 3q2 4 6 8t10 4t10 -3.5t5 -6t1 -4.5v-1q1 -9 8.5 -17 t20.5 -8t20.5 8t8.5 17q2 15 16 15q6 0 10 -3.5t5 -6t1 -4.5l1 -1q1 -9 8 -17t20 -8t20.5 8t8.5 17l2 3q1 4 5 8t10 4t10 -3.5t5 -6.5t1 -5h1q5 -37 5 -75q0 -74 -18.5 -129t-44.5 -80t-52 -39.5t-44 -15.5l-19 -2h-135v340q5 16 19 16q4 0 7 -1.5t5 -3.5t3 -4l2 -4v-2z M220 418q-6 0 -9.5 3t-4.5 7l-1 3q-1 9 -8.5 18t-21.5 9q-10 0 -19 -7l-1 99q3 -16 22 -16q9 0 14.5 5t6.5 9l1 5q4 21 24 21q9 0 14.5 -5t6.5 -11l2 -5q3 -19 22 -19q8 0 13.5 5t6.5 9l2 5q3 21 23 21q9 0 15 -5t7 -11l1 -5q3 -19 22 -19q9 0 14.5 5t6.5 9l1 5q4 21 24 21 q6 0 12 -5t8 -11l3 -5q20 -35 32 -97q-6 2 -12 2q-14 0 -21.5 -9t-8.5 -18l-1 -3q-1 -2 -2.5 -4t-5 -4t-7.5 -2q-9 0 -15 12v1q-1 9 -8.5 18t-21.5 9q-24 0 -30 -27q0 -1 -1 -3.5t-4.5 -6t-9.5 -3.5q-9 0 -15 12v1q-1 9 -8.5 18t-21.5 9t-21.5 -9t-8.5 -18l-1 -3 q-1 -2 -2.5 -4t-5 -4t-7.5 -2z" />
<glyph horiz-adv-x="605" d="M161 417h168q46 0 79 29.5t33 81.5q0 19 -3.5 34.5t-7.5 21.5l-3 5zM324 534l-163 -105v216zM180 645h142q30 0 54.5 -12t34.5 -24l10 -12l-87 -57zM67 733h257q95 0 154 -57t59 -145q0 -93 -60.5 -148.5t-154.5 -55.5h-179v-326h-76v732zM324 662h-181v-262h179 q65 0 100.5 34.5t35.5 96.5q0 60 -38 95.5t-96 35.5z" />
</font>
</defs>
</svg>
